<mxfile host="app.diagrams.net" agent="Mozilla/5.0 (Windows NT 10.0; Win64; x64) AppleWebKit/537.36 (KHTML, like Gecko) Chrome/139.0.0.0 Safari/537.36 Edg/139.0.0.0" version="28.1.0">
  <diagram id="C5RBs43oDa-KdzZeNtuy" name="Page-1">
    <mxGraphModel grid="1" page="1" gridSize="10" guides="1" tooltips="1" connect="1" arrows="1" fold="1" pageScale="1" pageWidth="827" pageHeight="1169" math="0" shadow="0">
      <root>
        <mxCell id="WIyWlLk6GJQsqaUBKTNV-0" />
        <mxCell id="WIyWlLk6GJQsqaUBKTNV-1" parent="WIyWlLk6GJQsqaUBKTNV-0" />
        <mxCell id="M7CGMbNuYNeq0SnUNNgH-6" value="ทบทวนสัญลักษณ์" style="swimlane;fontFamily=Sarabun;fontSource=https%3A%2F%2Ffonts.googleapis.com%2Fcss%3Ffamily%3DSarabun;" vertex="1" parent="WIyWlLk6GJQsqaUBKTNV-1">
          <mxGeometry x="-720" y="20" width="640" height="290" as="geometry" />
        </mxCell>
        <mxCell id="M7CGMbNuYNeq0SnUNNgH-2" value="&lt;font data-font-src=&quot;https://fonts.googleapis.com/css?family=Sarabun&quot; face=&quot;Sarabun&quot;&gt;เริ่มต้น&lt;/font&gt;" style="ellipse;whiteSpace=wrap;html=1;" vertex="1" parent="M7CGMbNuYNeq0SnUNNgH-6">
          <mxGeometry x="20" y="40" width="130" height="30" as="geometry" />
        </mxCell>
        <mxCell id="M7CGMbNuYNeq0SnUNNgH-5" value="" style="endArrow=classic;html=1;rounded=0;" edge="1" parent="M7CGMbNuYNeq0SnUNNgH-6">
          <mxGeometry width="50" height="50" relative="1" as="geometry">
            <mxPoint x="84.5" y="70" as="sourcePoint" />
            <mxPoint x="84.5" y="120" as="targetPoint" />
          </mxGeometry>
        </mxCell>
        <mxCell id="M7CGMbNuYNeq0SnUNNgH-3" value="&lt;font face=&quot;Sarabun&quot;&gt;สิ้นสุด&lt;/font&gt;" style="ellipse;whiteSpace=wrap;html=1;" vertex="1" parent="M7CGMbNuYNeq0SnUNNgH-6">
          <mxGeometry x="150" y="90" width="130" height="30" as="geometry" />
        </mxCell>
        <mxCell id="M7CGMbNuYNeq0SnUNNgH-4" value="" style="endArrow=classic;html=1;rounded=0;" edge="1" parent="M7CGMbNuYNeq0SnUNNgH-6">
          <mxGeometry width="50" height="50" relative="1" as="geometry">
            <mxPoint x="214.5" y="40" as="sourcePoint" />
            <mxPoint x="214.5" y="90" as="targetPoint" />
          </mxGeometry>
        </mxCell>
        <mxCell id="mvioNwK95yMqdUQ73LqQ-0" value="กระบวนการ" style="rounded=0;whiteSpace=wrap;html=1;fontFamily=Sarabun;fontSource=https%3A%2F%2Ffonts.googleapis.com%2Fcss%3Ffamily%3DSarabun;" vertex="1" parent="M7CGMbNuYNeq0SnUNNgH-6">
          <mxGeometry x="320" y="70" width="120" height="30" as="geometry" />
        </mxCell>
        <mxCell id="mvioNwK95yMqdUQ73LqQ-1" value="" style="endArrow=classic;html=1;rounded=0;" edge="1" parent="M7CGMbNuYNeq0SnUNNgH-6">
          <mxGeometry width="50" height="50" relative="1" as="geometry">
            <mxPoint x="379" y="40" as="sourcePoint" />
            <mxPoint x="379.5" y="70" as="targetPoint" />
          </mxGeometry>
        </mxCell>
        <mxCell id="mvioNwK95yMqdUQ73LqQ-2" value="" style="endArrow=classic;html=1;rounded=0;" edge="1" parent="M7CGMbNuYNeq0SnUNNgH-6">
          <mxGeometry width="50" height="50" relative="1" as="geometry">
            <mxPoint x="379.75" y="100" as="sourcePoint" />
            <mxPoint x="380.25" y="130" as="targetPoint" />
          </mxGeometry>
        </mxCell>
        <mxCell id="mvioNwK95yMqdUQ73LqQ-3" value="ประโยคเงื่อนไข" style="rhombus;whiteSpace=wrap;html=1;fontFamily=Sarabun;fontSource=https%3A%2F%2Ffonts.googleapis.com%2Fcss%3Ffamily%3DSarabun;" vertex="1" parent="M7CGMbNuYNeq0SnUNNgH-6">
          <mxGeometry x="490" y="60" width="100" height="60" as="geometry" />
        </mxCell>
        <mxCell id="mvioNwK95yMqdUQ73LqQ-4" value="" style="endArrow=classic;html=1;rounded=0;" edge="1" parent="M7CGMbNuYNeq0SnUNNgH-6">
          <mxGeometry width="50" height="50" relative="1" as="geometry">
            <mxPoint x="539.71" y="30" as="sourcePoint" />
            <mxPoint x="540.21" y="60" as="targetPoint" />
          </mxGeometry>
        </mxCell>
        <mxCell id="mvioNwK95yMqdUQ73LqQ-5" value="" style="endArrow=classic;html=1;rounded=0;" edge="1" parent="M7CGMbNuYNeq0SnUNNgH-6">
          <mxGeometry width="50" height="50" relative="1" as="geometry">
            <mxPoint x="539.71" y="120" as="sourcePoint" />
            <mxPoint x="540" y="175" as="targetPoint" />
          </mxGeometry>
        </mxCell>
        <mxCell id="mvioNwK95yMqdUQ73LqQ-7" value="จริง" style="edgeLabel;html=1;align=center;verticalAlign=middle;resizable=0;points=[];fontFamily=Sarabun;fontSource=https%3A%2F%2Ffonts.googleapis.com%2Fcss%3Ffamily%3DSarabun;" vertex="1" connectable="0" parent="mvioNwK95yMqdUQ73LqQ-5">
          <mxGeometry x="-0.4142" y="-1" relative="1" as="geometry">
            <mxPoint as="offset" />
          </mxGeometry>
        </mxCell>
        <mxCell id="mvioNwK95yMqdUQ73LqQ-6" value="" style="endArrow=classic;html=1;rounded=0;exitX=1;exitY=0.5;exitDx=0;exitDy=0;" edge="1" parent="M7CGMbNuYNeq0SnUNNgH-6" source="mvioNwK95yMqdUQ73LqQ-3">
          <mxGeometry width="50" height="50" relative="1" as="geometry">
            <mxPoint x="620" y="95" as="sourcePoint" />
            <mxPoint x="610" y="175" as="targetPoint" />
            <Array as="points">
              <mxPoint x="610" y="90" />
            </Array>
          </mxGeometry>
        </mxCell>
        <mxCell id="mvioNwK95yMqdUQ73LqQ-8" value="&lt;font data-font-src=&quot;https://fonts.googleapis.com/css?family=Sarabun&quot; face=&quot;Sarabun&quot;&gt;เท็จ&lt;/font&gt;" style="edgeLabel;html=1;align=center;verticalAlign=middle;resizable=0;points=[];" vertex="1" connectable="0" parent="mvioNwK95yMqdUQ73LqQ-6">
          <mxGeometry x="-0.0019" y="-2" relative="1" as="geometry">
            <mxPoint as="offset" />
          </mxGeometry>
        </mxCell>
        <mxCell id="mvioNwK95yMqdUQ73LqQ-9" value="&lt;font data-font-src=&quot;https://fonts.googleapis.com/css?family=Sarabun&quot; face=&quot;Sarabun&quot;&gt;ฟังก์ชัน/โมดูล&lt;/font&gt;" style="shape=process;whiteSpace=wrap;html=1;backgroundOutline=1;" vertex="1" parent="M7CGMbNuYNeq0SnUNNgH-6">
          <mxGeometry x="25" y="180" width="120" height="30" as="geometry" />
        </mxCell>
        <mxCell id="mvioNwK95yMqdUQ73LqQ-11" value="" style="endArrow=classic;html=1;rounded=0;" edge="1" parent="M7CGMbNuYNeq0SnUNNgH-6">
          <mxGeometry width="50" height="50" relative="1" as="geometry">
            <mxPoint x="84.70999999999998" y="150" as="sourcePoint" />
            <mxPoint x="85.20999999999998" y="180" as="targetPoint" />
          </mxGeometry>
        </mxCell>
        <mxCell id="mvioNwK95yMqdUQ73LqQ-12" value="" style="endArrow=classic;html=1;rounded=0;" edge="1" parent="M7CGMbNuYNeq0SnUNNgH-6">
          <mxGeometry width="50" height="50" relative="1" as="geometry">
            <mxPoint x="84.70999999999998" y="210" as="sourcePoint" />
            <mxPoint x="85.20999999999998" y="240" as="targetPoint" />
          </mxGeometry>
        </mxCell>
        <mxCell id="mvioNwK95yMqdUQ73LqQ-13" value="" style="strokeWidth=2;html=1;shape=mxgraph.flowchart.start_2;whiteSpace=wrap;" vertex="1" parent="M7CGMbNuYNeq0SnUNNgH-6">
          <mxGeometry x="205" y="185" width="20" height="20" as="geometry" />
        </mxCell>
        <mxCell id="mvioNwK95yMqdUQ73LqQ-16" value="" style="endArrow=classic;html=1;rounded=0;" edge="1" parent="M7CGMbNuYNeq0SnUNNgH-6">
          <mxGeometry width="50" height="50" relative="1" as="geometry">
            <mxPoint x="214.70999999999998" y="155" as="sourcePoint" />
            <mxPoint x="215.20999999999998" y="185" as="targetPoint" />
          </mxGeometry>
        </mxCell>
        <mxCell id="mvioNwK95yMqdUQ73LqQ-17" value="" style="endArrow=classic;html=1;rounded=0;entryX=0;entryY=0.5;entryDx=0;entryDy=0;entryPerimeter=0;" edge="1" parent="M7CGMbNuYNeq0SnUNNgH-6" target="mvioNwK95yMqdUQ73LqQ-13">
          <mxGeometry width="50" height="50" relative="1" as="geometry">
            <mxPoint x="189.99999999999997" y="155" as="sourcePoint" />
            <mxPoint x="190.49999999999997" y="185" as="targetPoint" />
            <Array as="points">
              <mxPoint x="190" y="180" />
            </Array>
          </mxGeometry>
        </mxCell>
        <mxCell id="mvioNwK95yMqdUQ73LqQ-18" value="" style="endArrow=classic;html=1;rounded=0;entryX=1;entryY=0.5;entryDx=0;entryDy=0;entryPerimeter=0;" edge="1" parent="M7CGMbNuYNeq0SnUNNgH-6" target="mvioNwK95yMqdUQ73LqQ-13">
          <mxGeometry width="50" height="50" relative="1" as="geometry">
            <mxPoint x="239.99999999999997" y="155" as="sourcePoint" />
            <mxPoint x="240.49999999999997" y="185" as="targetPoint" />
            <Array as="points">
              <mxPoint x="240" y="180" />
            </Array>
          </mxGeometry>
        </mxCell>
        <mxCell id="mvioNwK95yMqdUQ73LqQ-19" value="" style="endArrow=classic;html=1;rounded=0;" edge="1" parent="M7CGMbNuYNeq0SnUNNgH-6">
          <mxGeometry width="50" height="50" relative="1" as="geometry">
            <mxPoint x="214.70999999999998" y="205" as="sourcePoint" />
            <mxPoint x="215.20999999999998" y="235" as="targetPoint" />
          </mxGeometry>
        </mxCell>
        <mxCell id="mvioNwK95yMqdUQ73LqQ-20" value="&lt;font data-font-src=&quot;https://fonts.googleapis.com/css?family=Sarabun&quot; face=&quot;Sarabun&quot;&gt;ตัวเชื่อม&lt;/font&gt;" style="text;html=1;align=center;verticalAlign=middle;resizable=0;points=[];autosize=1;strokeColor=none;fillColor=none;" vertex="1" parent="M7CGMbNuYNeq0SnUNNgH-6">
          <mxGeometry x="220" y="190" width="60" height="30" as="geometry" />
        </mxCell>
        <mxCell id="mvioNwK95yMqdUQ73LqQ-25" value="" style="endArrow=classic;html=1;rounded=0;" edge="1" parent="M7CGMbNuYNeq0SnUNNgH-6">
          <mxGeometry width="50" height="50" relative="1" as="geometry">
            <mxPoint x="353.71" y="165" as="sourcePoint" />
            <mxPoint x="354.21" y="195" as="targetPoint" />
          </mxGeometry>
        </mxCell>
        <mxCell id="mvioNwK95yMqdUQ73LqQ-21" value="" style="verticalLabelPosition=bottom;verticalAlign=top;html=1;shape=offPageConnector;rounded=0;size=0.5;" vertex="1" parent="M7CGMbNuYNeq0SnUNNgH-6">
          <mxGeometry x="339" y="195" width="30" height="30" as="geometry" />
        </mxCell>
        <mxCell id="mvioNwK95yMqdUQ73LqQ-26" value="" style="endArrow=classic;html=1;rounded=0;" edge="1" parent="M7CGMbNuYNeq0SnUNNgH-6">
          <mxGeometry width="50" height="50" relative="1" as="geometry">
            <mxPoint x="405.71" y="195" as="sourcePoint" />
            <mxPoint x="406.21" y="225" as="targetPoint" />
          </mxGeometry>
        </mxCell>
        <mxCell id="mvioNwK95yMqdUQ73LqQ-27" value="" style="verticalLabelPosition=bottom;verticalAlign=top;html=1;shape=offPageConnector;rounded=0;size=0.5;" vertex="1" parent="M7CGMbNuYNeq0SnUNNgH-6">
          <mxGeometry x="391" y="165" width="30" height="30" as="geometry" />
        </mxCell>
        <mxCell id="mvioNwK95yMqdUQ73LqQ-28" value="หน้าต่อไป" style="text;html=1;align=center;verticalAlign=middle;resizable=0;points=[];autosize=1;strokeColor=none;fillColor=none;fontFamily=Sarabun;fontSource=https%3A%2F%2Ffonts.googleapis.com%2Fcss%3Ffamily%3DSarabun;" vertex="1" parent="M7CGMbNuYNeq0SnUNNgH-6">
          <mxGeometry x="345" y="220" width="70" height="30" as="geometry" />
        </mxCell>
        <mxCell id="mvioNwK95yMqdUQ73LqQ-29" value="ก" style="text;html=1;align=center;verticalAlign=middle;resizable=0;points=[];autosize=1;strokeColor=none;fillColor=none;fontFamily=Sarabun;fontSource=https%3A%2F%2Ffonts.googleapis.com%2Fcss%3Ffamily%3DSarabun;" vertex="1" parent="M7CGMbNuYNeq0SnUNNgH-6">
          <mxGeometry x="339" y="190" width="30" height="30" as="geometry" />
        </mxCell>
        <mxCell id="mvioNwK95yMqdUQ73LqQ-30" value="ก" style="text;html=1;align=center;verticalAlign=middle;resizable=0;points=[];autosize=1;strokeColor=none;fillColor=none;fontFamily=Sarabun;fontSource=https%3A%2F%2Ffonts.googleapis.com%2Fcss%3Ffamily%3DSarabun;" vertex="1" parent="M7CGMbNuYNeq0SnUNNgH-6">
          <mxGeometry x="391" y="160" width="30" height="30" as="geometry" />
        </mxCell>
        <mxCell id="mvioNwK95yMqdUQ73LqQ-32" value="แสดงผล/รับค่า" style="shape=parallelogram;perimeter=parallelogramPerimeter;whiteSpace=wrap;html=1;fixedSize=1;fontFamily=Sarabun;fontSource=https%3A%2F%2Ffonts.googleapis.com%2Fcss%3Ffamily%3DSarabun;" vertex="1" parent="M7CGMbNuYNeq0SnUNNgH-6">
          <mxGeometry x="450" y="210" width="120" height="30" as="geometry" />
        </mxCell>
        <mxCell id="mvioNwK95yMqdUQ73LqQ-33" value="" style="endArrow=classic;html=1;rounded=0;" edge="1" parent="M7CGMbNuYNeq0SnUNNgH-6">
          <mxGeometry width="50" height="50" relative="1" as="geometry">
            <mxPoint x="509.71" y="180" as="sourcePoint" />
            <mxPoint x="510.21" y="210" as="targetPoint" />
          </mxGeometry>
        </mxCell>
        <mxCell id="mvioNwK95yMqdUQ73LqQ-34" value="" style="endArrow=classic;html=1;rounded=0;" edge="1" parent="M7CGMbNuYNeq0SnUNNgH-6">
          <mxGeometry width="50" height="50" relative="1" as="geometry">
            <mxPoint x="509.71" y="240" as="sourcePoint" />
            <mxPoint x="510.21" y="270" as="targetPoint" />
          </mxGeometry>
        </mxCell>
        <mxCell id="mvioNwK95yMqdUQ73LqQ-36" value="แก้ไขโจทย์ปัญหา" style="swimlane;fontFamily=Sarabun;fontSource=https%3A%2F%2Ffonts.googleapis.com%2Fcss%3Ffamily%3DSarabun;" vertex="1" parent="WIyWlLk6GJQsqaUBKTNV-1">
          <mxGeometry x="80" y="70" width="850" height="3086" as="geometry" />
        </mxCell>
        <mxCell id="xchZKOA8fYitA80GFGcP-71" style="edgeStyle=orthogonalEdgeStyle;rounded=0;orthogonalLoop=1;jettySize=auto;html=1;entryX=0.5;entryY=0;entryDx=0;entryDy=0;" edge="1" parent="mvioNwK95yMqdUQ73LqQ-36" source="xchZKOA8fYitA80GFGcP-1" target="xchZKOA8fYitA80GFGcP-69">
          <mxGeometry relative="1" as="geometry" />
        </mxCell>
        <mxCell id="xchZKOA8fYitA80GFGcP-1" value="&lt;font style=&quot;font-size: 15px;&quot;&gt;เริ่มต้น&lt;/font&gt;" style="strokeWidth=1;html=1;shape=mxgraph.flowchart.terminator;whiteSpace=wrap;" vertex="1" parent="mvioNwK95yMqdUQ73LqQ-36">
          <mxGeometry x="255" y="30" width="130" height="60" as="geometry" />
        </mxCell>
        <mxCell id="xchZKOA8fYitA80GFGcP-14" value="" style="edgeStyle=orthogonalEdgeStyle;rounded=0;orthogonalLoop=1;jettySize=auto;html=1;" edge="1" parent="mvioNwK95yMqdUQ73LqQ-36" source="xchZKOA8fYitA80GFGcP-9" target="xchZKOA8fYitA80GFGcP-13">
          <mxGeometry relative="1" as="geometry" />
        </mxCell>
        <mxCell id="nNyQ8NcAXZE7S4zx8suW-2" style="edgeStyle=orthogonalEdgeStyle;rounded=0;orthogonalLoop=1;jettySize=auto;html=1;entryX=0.5;entryY=0;entryDx=0;entryDy=0;" edge="1" parent="mvioNwK95yMqdUQ73LqQ-36" source="xchZKOA8fYitA80GFGcP-9" target="nNyQ8NcAXZE7S4zx8suW-0">
          <mxGeometry relative="1" as="geometry" />
        </mxCell>
        <mxCell id="xchZKOA8fYitA80GFGcP-9" value="&lt;div&gt;สินค้าประเภทนํ้า&lt;/div&gt;&lt;div&gt;ใช่หรือไม่&lt;/div&gt;" style="rhombus;whiteSpace=wrap;html=1;" vertex="1" parent="mvioNwK95yMqdUQ73LqQ-36">
          <mxGeometry x="260" y="320" width="120" height="110" as="geometry" />
        </mxCell>
        <mxCell id="nNyQ8NcAXZE7S4zx8suW-3" style="edgeStyle=orthogonalEdgeStyle;rounded=0;orthogonalLoop=1;jettySize=auto;html=1;" edge="1" parent="mvioNwK95yMqdUQ73LqQ-36" source="xchZKOA8fYitA80GFGcP-13" target="nNyQ8NcAXZE7S4zx8suW-1">
          <mxGeometry relative="1" as="geometry" />
        </mxCell>
        <mxCell id="xchZKOA8fYitA80GFGcP-13" value="&lt;div&gt;สินค้าประเภทขนม&lt;/div&gt;&lt;div&gt;หรือไม่&lt;/div&gt;" style="rhombus;whiteSpace=wrap;html=1;" vertex="1" parent="mvioNwK95yMqdUQ73LqQ-36">
          <mxGeometry x="460" y="320" width="120" height="110" as="geometry" />
        </mxCell>
        <mxCell id="xchZKOA8fYitA80GFGcP-15" value="no" style="text;html=1;align=center;verticalAlign=middle;whiteSpace=wrap;rounded=0;" vertex="1" parent="mvioNwK95yMqdUQ73LqQ-36">
          <mxGeometry x="385" y="350" width="60" height="30" as="geometry" />
        </mxCell>
        <mxCell id="xchZKOA8fYitA80GFGcP-20" value="yes" style="text;html=1;align=center;verticalAlign=middle;whiteSpace=wrap;rounded=0;" vertex="1" parent="mvioNwK95yMqdUQ73LqQ-36">
          <mxGeometry x="325" y="425" width="60" height="30" as="geometry" />
        </mxCell>
        <mxCell id="xchZKOA8fYitA80GFGcP-39" style="edgeStyle=orthogonalEdgeStyle;rounded=0;orthogonalLoop=1;jettySize=auto;html=1;entryX=0;entryY=0.5;entryDx=0;entryDy=0;" edge="1" parent="mvioNwK95yMqdUQ73LqQ-36" source="xchZKOA8fYitA80GFGcP-21" target="xchZKOA8fYitA80GFGcP-35">
          <mxGeometry relative="1" as="geometry">
            <Array as="points">
              <mxPoint x="207" y="620" />
              <mxPoint x="207" y="260" />
            </Array>
          </mxGeometry>
        </mxCell>
        <mxCell id="xchZKOA8fYitA80GFGcP-45" style="edgeStyle=orthogonalEdgeStyle;rounded=0;orthogonalLoop=1;jettySize=auto;html=1;entryX=0;entryY=0.5;entryDx=0;entryDy=0;" edge="1" parent="mvioNwK95yMqdUQ73LqQ-36" source="xchZKOA8fYitA80GFGcP-21" target="xchZKOA8fYitA80GFGcP-42">
          <mxGeometry relative="1" as="geometry">
            <Array as="points">
              <mxPoint x="320" y="710" />
            </Array>
          </mxGeometry>
        </mxCell>
        <mxCell id="xchZKOA8fYitA80GFGcP-21" value="เลือกสินค้าประเภทนํ้าที่ต้องการหรือไม่" style="rhombus;whiteSpace=wrap;html=1;" vertex="1" parent="mvioNwK95yMqdUQ73LqQ-36">
          <mxGeometry x="262.5" y="560" width="115" height="120" as="geometry" />
        </mxCell>
        <mxCell id="xchZKOA8fYitA80GFGcP-24" value="no" style="text;html=1;align=center;verticalAlign=middle;whiteSpace=wrap;rounded=0;" vertex="1" parent="mvioNwK95yMqdUQ73LqQ-36">
          <mxGeometry x="338.75" y="680" width="60" height="30" as="geometry" />
        </mxCell>
        <mxCell id="xchZKOA8fYitA80GFGcP-43" style="edgeStyle=orthogonalEdgeStyle;rounded=0;orthogonalLoop=1;jettySize=auto;html=1;entryX=1;entryY=0.5;entryDx=0;entryDy=0;" edge="1" parent="mvioNwK95yMqdUQ73LqQ-36" source="xchZKOA8fYitA80GFGcP-27" target="xchZKOA8fYitA80GFGcP-42">
          <mxGeometry relative="1" as="geometry">
            <Array as="points">
              <mxPoint x="520" y="710" />
            </Array>
          </mxGeometry>
        </mxCell>
        <mxCell id="xchZKOA8fYitA80GFGcP-125" style="edgeStyle=orthogonalEdgeStyle;rounded=0;orthogonalLoop=1;jettySize=auto;html=1;entryX=0;entryY=0.5;entryDx=0;entryDy=0;" edge="1" parent="mvioNwK95yMqdUQ73LqQ-36" source="xchZKOA8fYitA80GFGcP-27" target="xchZKOA8fYitA80GFGcP-122">
          <mxGeometry relative="1" as="geometry" />
        </mxCell>
        <mxCell id="xchZKOA8fYitA80GFGcP-27" value="เลือกสินค้าขนมที่ต้องการ" style="rhombus;whiteSpace=wrap;html=1;" vertex="1" parent="mvioNwK95yMqdUQ73LqQ-36">
          <mxGeometry x="465" y="560" width="110" height="100" as="geometry" />
        </mxCell>
        <mxCell id="xchZKOA8fYitA80GFGcP-29" value="yes" style="text;html=1;align=center;verticalAlign=middle;whiteSpace=wrap;rounded=0;" vertex="1" parent="mvioNwK95yMqdUQ73LqQ-36">
          <mxGeometry x="553.75" y="430" width="60" height="30" as="geometry" />
        </mxCell>
        <mxCell id="xchZKOA8fYitA80GFGcP-38" style="edgeStyle=orthogonalEdgeStyle;rounded=0;orthogonalLoop=1;jettySize=auto;html=1;entryX=0.5;entryY=0;entryDx=0;entryDy=0;" edge="1" parent="mvioNwK95yMqdUQ73LqQ-36" source="xchZKOA8fYitA80GFGcP-35" target="xchZKOA8fYitA80GFGcP-9">
          <mxGeometry relative="1" as="geometry" />
        </mxCell>
        <mxCell id="xchZKOA8fYitA80GFGcP-35" value="เลือกประเภทสินค้า" style="rounded=0;whiteSpace=wrap;html=1;" vertex="1" parent="mvioNwK95yMqdUQ73LqQ-36">
          <mxGeometry x="260" y="230" width="120" height="60" as="geometry" />
        </mxCell>
        <mxCell id="xchZKOA8fYitA80GFGcP-41" value="no" style="text;html=1;align=center;verticalAlign=middle;whiteSpace=wrap;rounded=0;" vertex="1" parent="mvioNwK95yMqdUQ73LqQ-36">
          <mxGeometry x="453.75" y="680" width="60" height="30" as="geometry" />
        </mxCell>
        <mxCell id="xchZKOA8fYitA80GFGcP-49" value="" style="edgeStyle=orthogonalEdgeStyle;rounded=0;orthogonalLoop=1;jettySize=auto;html=1;" edge="1" parent="mvioNwK95yMqdUQ73LqQ-36" source="xchZKOA8fYitA80GFGcP-42" target="xchZKOA8fYitA80GFGcP-48">
          <mxGeometry relative="1" as="geometry" />
        </mxCell>
        <mxCell id="xchZKOA8fYitA80GFGcP-42" value="" style="ellipse;whiteSpace=wrap;html=1;aspect=fixed;" vertex="1" parent="mvioNwK95yMqdUQ73LqQ-36">
          <mxGeometry x="405" y="690" width="40" height="40" as="geometry" />
        </mxCell>
        <mxCell id="xchZKOA8fYitA80GFGcP-58" style="edgeStyle=orthogonalEdgeStyle;rounded=0;orthogonalLoop=1;jettySize=auto;html=1;entryX=0;entryY=0.5;entryDx=0;entryDy=0;" edge="1" parent="mvioNwK95yMqdUQ73LqQ-36" source="xchZKOA8fYitA80GFGcP-48" target="xchZKOA8fYitA80GFGcP-69">
          <mxGeometry relative="1" as="geometry">
            <mxPoint x="230" y="160" as="targetPoint" />
            <Array as="points">
              <mxPoint x="67" y="825" />
              <mxPoint x="67" y="160" />
            </Array>
          </mxGeometry>
        </mxCell>
        <mxCell id="xchZKOA8fYitA80GFGcP-118" style="edgeStyle=orthogonalEdgeStyle;rounded=0;orthogonalLoop=1;jettySize=auto;html=1;entryX=0.5;entryY=0;entryDx=0;entryDy=0;" edge="1" parent="mvioNwK95yMqdUQ73LqQ-36" source="xchZKOA8fYitA80GFGcP-48" target="xchZKOA8fYitA80GFGcP-117">
          <mxGeometry relative="1" as="geometry" />
        </mxCell>
        <mxCell id="xchZKOA8fYitA80GFGcP-48" value="เลือกสินค้าต่อหรือไม่" style="rhombus;whiteSpace=wrap;html=1;" vertex="1" parent="mvioNwK95yMqdUQ73LqQ-36">
          <mxGeometry x="362.5" y="770" width="125" height="110" as="geometry" />
        </mxCell>
        <mxCell id="xchZKOA8fYitA80GFGcP-50" value="yes" style="text;html=1;align=center;verticalAlign=middle;whiteSpace=wrap;rounded=0;" vertex="1" parent="mvioNwK95yMqdUQ73LqQ-36">
          <mxGeometry x="210" y="595" width="60" height="30" as="geometry" />
        </mxCell>
        <mxCell id="xchZKOA8fYitA80GFGcP-51" value="yes" style="text;html=1;align=center;verticalAlign=middle;whiteSpace=wrap;rounded=0;" vertex="1" parent="mvioNwK95yMqdUQ73LqQ-36">
          <mxGeometry x="575" y="580" width="60" height="30" as="geometry" />
        </mxCell>
        <mxCell id="xchZKOA8fYitA80GFGcP-59" value="yes" style="text;html=1;align=center;verticalAlign=middle;whiteSpace=wrap;rounded=0;" vertex="1" parent="mvioNwK95yMqdUQ73LqQ-36">
          <mxGeometry x="302.5" y="826" width="60" height="30" as="geometry" />
        </mxCell>
        <mxCell id="xchZKOA8fYitA80GFGcP-60" value="no" style="text;html=1;align=center;verticalAlign=middle;whiteSpace=wrap;rounded=0;" vertex="1" parent="mvioNwK95yMqdUQ73LqQ-36">
          <mxGeometry x="370" y="886" width="60" height="30" as="geometry" />
        </mxCell>
        <mxCell id="xchZKOA8fYitA80GFGcP-72" style="edgeStyle=orthogonalEdgeStyle;rounded=0;orthogonalLoop=1;jettySize=auto;html=1;" edge="1" parent="mvioNwK95yMqdUQ73LqQ-36" source="xchZKOA8fYitA80GFGcP-69" target="xchZKOA8fYitA80GFGcP-35">
          <mxGeometry relative="1" as="geometry" />
        </mxCell>
        <mxCell id="xchZKOA8fYitA80GFGcP-69" value="แสดงรายการสินค้าและราคาทั้งหมด" style="shape=parallelogram;perimeter=parallelogramPerimeter;whiteSpace=wrap;html=1;fixedSize=1;" vertex="1" parent="mvioNwK95yMqdUQ73LqQ-36">
          <mxGeometry x="210" y="130" width="220" height="60" as="geometry" />
        </mxCell>
        <mxCell id="xchZKOA8fYitA80GFGcP-119" style="edgeStyle=orthogonalEdgeStyle;rounded=0;orthogonalLoop=1;jettySize=auto;html=1;" edge="1" parent="mvioNwK95yMqdUQ73LqQ-36" source="xchZKOA8fYitA80GFGcP-117" target="xchZKOA8fYitA80GFGcP-52">
          <mxGeometry relative="1" as="geometry">
            <mxPoint x="425" y="1086" as="targetPoint" />
          </mxGeometry>
        </mxCell>
        <mxCell id="nNyQ8NcAXZE7S4zx8suW-18" style="edgeStyle=orthogonalEdgeStyle;rounded=0;orthogonalLoop=1;jettySize=auto;html=1;entryX=0;entryY=0.5;entryDx=0;entryDy=0;" edge="1" parent="mvioNwK95yMqdUQ73LqQ-36" source="xchZKOA8fYitA80GFGcP-117" target="nNyQ8NcAXZE7S4zx8suW-8">
          <mxGeometry relative="1" as="geometry" />
        </mxCell>
        <mxCell id="xchZKOA8fYitA80GFGcP-117" value="ตรวจสอบว่ามีสินค้า&lt;div&gt;หรือไม่&lt;/div&gt;" style="rhombus;whiteSpace=wrap;html=1;" vertex="1" parent="mvioNwK95yMqdUQ73LqQ-36">
          <mxGeometry x="362.5" y="936" width="125" height="110" as="geometry" />
        </mxCell>
        <mxCell id="xchZKOA8fYitA80GFGcP-120" value="yes" style="text;html=1;align=center;verticalAlign=middle;whiteSpace=wrap;rounded=0;" vertex="1" parent="mvioNwK95yMqdUQ73LqQ-36">
          <mxGeometry x="421.62" y="1070" width="60" height="30" as="geometry" />
        </mxCell>
        <mxCell id="nNyQ8NcAXZE7S4zx8suW-15" style="edgeStyle=orthogonalEdgeStyle;rounded=0;orthogonalLoop=1;jettySize=auto;html=1;entryX=0.5;entryY=1;entryDx=0;entryDy=0;" edge="1" parent="mvioNwK95yMqdUQ73LqQ-36" source="xchZKOA8fYitA80GFGcP-122" target="nNyQ8NcAXZE7S4zx8suW-14">
          <mxGeometry relative="1" as="geometry" />
        </mxCell>
        <mxCell id="xchZKOA8fYitA80GFGcP-122" value="" style="ellipse;whiteSpace=wrap;html=1;aspect=fixed;" vertex="1" parent="mvioNwK95yMqdUQ73LqQ-36">
          <mxGeometry x="650" y="590" width="40" height="40" as="geometry" />
        </mxCell>
        <mxCell id="xchZKOA8fYitA80GFGcP-126" value="no" style="text;html=1;align=center;verticalAlign=middle;whiteSpace=wrap;rounded=0;" vertex="1" parent="mvioNwK95yMqdUQ73LqQ-36">
          <mxGeometry x="540" y="956" width="60" height="30" as="geometry" />
        </mxCell>
        <mxCell id="xchZKOA8fYitA80GFGcP-57" value="" style="edgeStyle=orthogonalEdgeStyle;rounded=0;orthogonalLoop=1;jettySize=auto;html=1;" edge="1" parent="mvioNwK95yMqdUQ73LqQ-36" source="xchZKOA8fYitA80GFGcP-52" target="xchZKOA8fYitA80GFGcP-56">
          <mxGeometry relative="1" as="geometry" />
        </mxCell>
        <mxCell id="xchZKOA8fYitA80GFGcP-52" value="รวมรายการทั้งหมดที่ลูกค้าเลือก" style="whiteSpace=wrap;html=1;" vertex="1" parent="mvioNwK95yMqdUQ73LqQ-36">
          <mxGeometry x="343.75" y="1136" width="165" height="60" as="geometry" />
        </mxCell>
        <mxCell id="xchZKOA8fYitA80GFGcP-62" style="edgeStyle=orthogonalEdgeStyle;rounded=0;orthogonalLoop=1;jettySize=auto;html=1;" edge="1" parent="mvioNwK95yMqdUQ73LqQ-36" source="xchZKOA8fYitA80GFGcP-56" target="xchZKOA8fYitA80GFGcP-61">
          <mxGeometry relative="1" as="geometry" />
        </mxCell>
        <mxCell id="xchZKOA8fYitA80GFGcP-56" value="รวมราคาทั้งหมดของสินค้าที่เลือก&amp;nbsp;" style="whiteSpace=wrap;html=1;" vertex="1" parent="mvioNwK95yMqdUQ73LqQ-36">
          <mxGeometry x="338.75" y="1240" width="175" height="60" as="geometry" />
        </mxCell>
        <mxCell id="xchZKOA8fYitA80GFGcP-64" value="" style="edgeStyle=orthogonalEdgeStyle;rounded=0;orthogonalLoop=1;jettySize=auto;html=1;" edge="1" parent="mvioNwK95yMqdUQ73LqQ-36" source="xchZKOA8fYitA80GFGcP-61" target="xchZKOA8fYitA80GFGcP-63">
          <mxGeometry relative="1" as="geometry" />
        </mxCell>
        <mxCell id="xchZKOA8fYitA80GFGcP-61" value="แสดงรายการทั้งหมดรวมกับ&lt;div&gt;ราคาสินค้าทั้งหมด&lt;/div&gt;" style="shape=parallelogram;perimeter=parallelogramPerimeter;whiteSpace=wrap;html=1;fixedSize=1;" vertex="1" parent="mvioNwK95yMqdUQ73LqQ-36">
          <mxGeometry x="327.5" y="1356" width="197.5" height="60" as="geometry" />
        </mxCell>
        <mxCell id="xchZKOA8fYitA80GFGcP-66" value="" style="edgeStyle=orthogonalEdgeStyle;rounded=0;orthogonalLoop=1;jettySize=auto;html=1;" edge="1" parent="mvioNwK95yMqdUQ73LqQ-36" source="xchZKOA8fYitA80GFGcP-63" target="xchZKOA8fYitA80GFGcP-65">
          <mxGeometry relative="1" as="geometry" />
        </mxCell>
        <mxCell id="xchZKOA8fYitA80GFGcP-63" value="เลือกวิธีการเงิน" style="whiteSpace=wrap;html=1;" vertex="1" parent="mvioNwK95yMqdUQ73LqQ-36">
          <mxGeometry x="348.75" y="1476" width="155" height="60" as="geometry" />
        </mxCell>
        <mxCell id="xchZKOA8fYitA80GFGcP-68" value="" style="edgeStyle=orthogonalEdgeStyle;rounded=0;orthogonalLoop=1;jettySize=auto;html=1;" edge="1" parent="mvioNwK95yMqdUQ73LqQ-36" source="xchZKOA8fYitA80GFGcP-65" target="xchZKOA8fYitA80GFGcP-67">
          <mxGeometry relative="1" as="geometry" />
        </mxCell>
        <mxCell id="nNyQ8NcAXZE7S4zx8suW-7" style="edgeStyle=orthogonalEdgeStyle;rounded=0;orthogonalLoop=1;jettySize=auto;html=1;entryX=0;entryY=0.5;entryDx=0;entryDy=0;" edge="1" parent="mvioNwK95yMqdUQ73LqQ-36" source="xchZKOA8fYitA80GFGcP-65" target="xchZKOA8fYitA80GFGcP-172">
          <mxGeometry relative="1" as="geometry">
            <Array as="points">
              <mxPoint x="170" y="1631" />
              <mxPoint x="170" y="2476" />
            </Array>
          </mxGeometry>
        </mxCell>
        <mxCell id="xchZKOA8fYitA80GFGcP-65" value="&lt;div&gt;จ่ายเงินแบบสแกน&lt;div&gt;หรือไม่&lt;/div&gt;&lt;/div&gt;" style="rhombus;whiteSpace=wrap;html=1;" vertex="1" parent="mvioNwK95yMqdUQ73LqQ-36">
          <mxGeometry x="368.75" y="1576" width="115" height="110" as="geometry" />
        </mxCell>
        <mxCell id="xchZKOA8fYitA80GFGcP-133" style="edgeStyle=orthogonalEdgeStyle;rounded=0;orthogonalLoop=1;jettySize=auto;html=1;entryX=0.5;entryY=0;entryDx=0;entryDy=0;" edge="1" parent="mvioNwK95yMqdUQ73LqQ-36" source="xchZKOA8fYitA80GFGcP-67" target="xchZKOA8fYitA80GFGcP-142">
          <mxGeometry relative="1" as="geometry">
            <mxPoint x="426.25" y="1871" as="targetPoint" />
          </mxGeometry>
        </mxCell>
        <mxCell id="xchZKOA8fYitA80GFGcP-149" style="edgeStyle=orthogonalEdgeStyle;rounded=0;orthogonalLoop=1;jettySize=auto;html=1;entryX=0;entryY=0.5;entryDx=0;entryDy=0;" edge="1" parent="mvioNwK95yMqdUQ73LqQ-36" source="xchZKOA8fYitA80GFGcP-67" target="xchZKOA8fYitA80GFGcP-147">
          <mxGeometry relative="1" as="geometry" />
        </mxCell>
        <mxCell id="xchZKOA8fYitA80GFGcP-67" value="จ่ายเงินสดหรือไม่" style="rhombus;whiteSpace=wrap;html=1;strokeColor=default;align=center;verticalAlign=middle;fontFamily=Helvetica;fontSize=12;fontColor=default;fillColor=default;" vertex="1" parent="mvioNwK95yMqdUQ73LqQ-36">
          <mxGeometry x="368.75" y="1726" width="115" height="95" as="geometry" />
        </mxCell>
        <mxCell id="xchZKOA8fYitA80GFGcP-130" value="no" style="text;html=1;align=center;verticalAlign=middle;whiteSpace=wrap;rounded=0;" vertex="1" parent="mvioNwK95yMqdUQ73LqQ-36">
          <mxGeometry x="368.75" y="1691" width="60" height="30" as="geometry" />
        </mxCell>
        <mxCell id="xchZKOA8fYitA80GFGcP-134" value="yes" style="text;html=1;align=center;verticalAlign=middle;whiteSpace=wrap;rounded=0;" vertex="1" parent="mvioNwK95yMqdUQ73LqQ-36">
          <mxGeometry x="443.75" y="1821" width="60" height="30" as="geometry" />
        </mxCell>
        <mxCell id="xchZKOA8fYitA80GFGcP-136" value="yes" style="text;html=1;align=center;verticalAlign=middle;whiteSpace=wrap;rounded=0;" vertex="1" parent="mvioNwK95yMqdUQ73LqQ-36">
          <mxGeometry x="314" y="1590" width="60" height="30" as="geometry" />
        </mxCell>
        <mxCell id="xchZKOA8fYitA80GFGcP-138" value="no" style="text;html=1;align=center;verticalAlign=middle;whiteSpace=wrap;rounded=0;" vertex="1" parent="mvioNwK95yMqdUQ73LqQ-36">
          <mxGeometry x="483.75" y="1741" width="60" height="30" as="geometry" />
        </mxCell>
        <mxCell id="xchZKOA8fYitA80GFGcP-146" style="edgeStyle=orthogonalEdgeStyle;rounded=0;orthogonalLoop=1;jettySize=auto;html=1;" edge="1" parent="mvioNwK95yMqdUQ73LqQ-36" source="xchZKOA8fYitA80GFGcP-142" target="xchZKOA8fYitA80GFGcP-145">
          <mxGeometry relative="1" as="geometry" />
        </mxCell>
        <mxCell id="xchZKOA8fYitA80GFGcP-169" style="edgeStyle=orthogonalEdgeStyle;rounded=0;orthogonalLoop=1;jettySize=auto;html=1;entryX=0.5;entryY=0;entryDx=0;entryDy=0;" edge="1" parent="mvioNwK95yMqdUQ73LqQ-36" source="xchZKOA8fYitA80GFGcP-142" target="xchZKOA8fYitA80GFGcP-159">
          <mxGeometry relative="1" as="geometry" />
        </mxCell>
        <mxCell id="xchZKOA8fYitA80GFGcP-142" value="จำนวนเงินที่ได้รับ &amp;gt;= ราคาสินค้า" style="rhombus;whiteSpace=wrap;html=1;" vertex="1" parent="mvioNwK95yMqdUQ73LqQ-36">
          <mxGeometry x="377.87" y="1851" width="96.75" height="95" as="geometry" />
        </mxCell>
        <mxCell id="xchZKOA8fYitA80GFGcP-150" style="edgeStyle=orthogonalEdgeStyle;rounded=0;orthogonalLoop=1;jettySize=auto;html=1;entryX=0.5;entryY=1;entryDx=0;entryDy=0;" edge="1" parent="mvioNwK95yMqdUQ73LqQ-36" source="xchZKOA8fYitA80GFGcP-145" target="xchZKOA8fYitA80GFGcP-147">
          <mxGeometry relative="1" as="geometry" />
        </mxCell>
        <mxCell id="xchZKOA8fYitA80GFGcP-145" value="แสดงยอดเงินคงเหลือที่&lt;div&gt;ลูกค้าต้องจ่ายเพิ่ม&lt;/div&gt;" style="shape=parallelogram;perimeter=parallelogramPerimeter;whiteSpace=wrap;html=1;fixedSize=1;" vertex="1" parent="mvioNwK95yMqdUQ73LqQ-36">
          <mxGeometry x="593" y="1864.75" width="180" height="67.5" as="geometry" />
        </mxCell>
        <mxCell id="xchZKOA8fYitA80GFGcP-151" style="edgeStyle=orthogonalEdgeStyle;rounded=0;orthogonalLoop=1;jettySize=auto;html=1;entryX=1;entryY=0.5;entryDx=0;entryDy=0;" edge="1" parent="mvioNwK95yMqdUQ73LqQ-36" source="xchZKOA8fYitA80GFGcP-147" target="xchZKOA8fYitA80GFGcP-63">
          <mxGeometry relative="1" as="geometry">
            <Array as="points">
              <mxPoint x="683" y="1506" />
            </Array>
          </mxGeometry>
        </mxCell>
        <mxCell id="xchZKOA8fYitA80GFGcP-147" value="" style="ellipse;whiteSpace=wrap;html=1;aspect=fixed;" vertex="1" parent="mvioNwK95yMqdUQ73LqQ-36">
          <mxGeometry x="663" y="1753.5" width="40" height="40" as="geometry" />
        </mxCell>
        <mxCell id="xchZKOA8fYitA80GFGcP-152" value="no" style="text;html=1;align=center;verticalAlign=middle;whiteSpace=wrap;rounded=0;" vertex="1" parent="mvioNwK95yMqdUQ73LqQ-36">
          <mxGeometry x="493.75" y="1864.75" width="60" height="30" as="geometry" />
        </mxCell>
        <mxCell id="xchZKOA8fYitA80GFGcP-153" value="yes" style="text;html=1;align=center;verticalAlign=middle;whiteSpace=wrap;rounded=0;" vertex="1" parent="mvioNwK95yMqdUQ73LqQ-36">
          <mxGeometry x="368.75" y="1946" width="60" height="30" as="geometry" />
        </mxCell>
        <mxCell id="xchZKOA8fYitA80GFGcP-159" value="คำนวนเงินทอน" style="whiteSpace=wrap;html=1;" vertex="1" parent="mvioNwK95yMqdUQ73LqQ-36">
          <mxGeometry x="351.25" y="1981" width="150" height="60" as="geometry" />
        </mxCell>
        <mxCell id="xchZKOA8fYitA80GFGcP-2" value="&lt;span style=&quot;font-size: 15px;&quot;&gt;สิ้นสุด&lt;/span&gt;" style="strokeWidth=1;html=1;shape=mxgraph.flowchart.terminator;whiteSpace=wrap;" vertex="1" parent="mvioNwK95yMqdUQ73LqQ-36">
          <mxGeometry x="357.5" y="2931" width="130" height="60" as="geometry" />
        </mxCell>
        <mxCell id="xchZKOA8fYitA80GFGcP-190" style="edgeStyle=orthogonalEdgeStyle;rounded=0;orthogonalLoop=1;jettySize=auto;html=1;" edge="1" parent="mvioNwK95yMqdUQ73LqQ-36" target="xchZKOA8fYitA80GFGcP-161">
          <mxGeometry relative="1" as="geometry">
            <mxPoint x="422.5" y="2041" as="sourcePoint" />
          </mxGeometry>
        </mxCell>
        <mxCell id="xchZKOA8fYitA80GFGcP-166" value="" style="edgeStyle=orthogonalEdgeStyle;rounded=0;orthogonalLoop=1;jettySize=auto;html=1;" edge="1" parent="mvioNwK95yMqdUQ73LqQ-36" source="xchZKOA8fYitA80GFGcP-161" target="xchZKOA8fYitA80GFGcP-165">
          <mxGeometry relative="1" as="geometry" />
        </mxCell>
        <mxCell id="xchZKOA8fYitA80GFGcP-161" value="จำนวนเงินทอน = ราคารสินค้า - จำนวนเงินที่ได้รับ&amp;nbsp;&amp;nbsp;" style="whiteSpace=wrap;html=1;" vertex="1" parent="mvioNwK95yMqdUQ73LqQ-36">
          <mxGeometry x="302.5" y="2076" width="238.25" height="60" as="geometry" />
        </mxCell>
        <mxCell id="xchZKOA8fYitA80GFGcP-173" value="" style="edgeStyle=orthogonalEdgeStyle;rounded=0;orthogonalLoop=1;jettySize=auto;html=1;" edge="1" parent="mvioNwK95yMqdUQ73LqQ-36" source="xchZKOA8fYitA80GFGcP-164" target="xchZKOA8fYitA80GFGcP-172">
          <mxGeometry relative="1" as="geometry" />
        </mxCell>
        <mxCell id="xchZKOA8fYitA80GFGcP-180" style="edgeStyle=orthogonalEdgeStyle;rounded=0;orthogonalLoop=1;jettySize=auto;html=1;entryX=0;entryY=0.5;entryDx=0;entryDy=0;" edge="1" parent="mvioNwK95yMqdUQ73LqQ-36" source="xchZKOA8fYitA80GFGcP-164" target="xchZKOA8fYitA80GFGcP-181">
          <mxGeometry relative="1" as="geometry">
            <mxPoint x="608.3699999999994" y="2351" as="targetPoint" />
          </mxGeometry>
        </mxCell>
        <mxCell id="xchZKOA8fYitA80GFGcP-164" value="เงินในตู้ &amp;gt;= เงินทอน&lt;div&gt;หรือไม่&lt;/div&gt;" style="rhombus;whiteSpace=wrap;html=1;" vertex="1" parent="mvioNwK95yMqdUQ73LqQ-36">
          <mxGeometry x="345" y="2296" width="153.26" height="110" as="geometry" />
        </mxCell>
        <mxCell id="xchZKOA8fYitA80GFGcP-167" style="edgeStyle=orthogonalEdgeStyle;rounded=0;orthogonalLoop=1;jettySize=auto;html=1;" edge="1" parent="mvioNwK95yMqdUQ73LqQ-36" source="xchZKOA8fYitA80GFGcP-165" target="xchZKOA8fYitA80GFGcP-164">
          <mxGeometry relative="1" as="geometry" />
        </mxCell>
        <mxCell id="xchZKOA8fYitA80GFGcP-165" value="คำนวน จำนวนเหรียญ และ จำนวนธนบัตรภายในตู้" style="whiteSpace=wrap;html=1;" vertex="1" parent="mvioNwK95yMqdUQ73LqQ-36">
          <mxGeometry x="311.6199999999999" y="2186" width="220.01" height="60" as="geometry" />
        </mxCell>
        <mxCell id="xchZKOA8fYitA80GFGcP-177" style="edgeStyle=orthogonalEdgeStyle;rounded=0;orthogonalLoop=1;jettySize=auto;html=1;" edge="1" parent="mvioNwK95yMqdUQ73LqQ-36" source="xchZKOA8fYitA80GFGcP-139" target="xchZKOA8fYitA80GFGcP-171">
          <mxGeometry relative="1" as="geometry" />
        </mxCell>
        <mxCell id="xchZKOA8fYitA80GFGcP-139" value="ปล่อยสินค้า" style="whiteSpace=wrap;html=1;" vertex="1" parent="mvioNwK95yMqdUQ73LqQ-36">
          <mxGeometry x="346.6199999999999" y="2646" width="150" height="60" as="geometry" />
        </mxCell>
        <mxCell id="xchZKOA8fYitA80GFGcP-187" style="edgeStyle=orthogonalEdgeStyle;rounded=0;orthogonalLoop=1;jettySize=auto;html=1;entryX=0.5;entryY=0;entryDx=0;entryDy=0;" edge="1" parent="mvioNwK95yMqdUQ73LqQ-36" source="xchZKOA8fYitA80GFGcP-171" target="xchZKOA8fYitA80GFGcP-186">
          <mxGeometry relative="1" as="geometry" />
        </mxCell>
        <mxCell id="xchZKOA8fYitA80GFGcP-171" value="ลูกค้าได้รับสินค้า" style="whiteSpace=wrap;html=1;" vertex="1" parent="mvioNwK95yMqdUQ73LqQ-36">
          <mxGeometry x="346.6199999999999" y="2756" width="150" height="60" as="geometry" />
        </mxCell>
        <mxCell id="xchZKOA8fYitA80GFGcP-182" style="edgeStyle=orthogonalEdgeStyle;rounded=0;orthogonalLoop=1;jettySize=auto;html=1;" edge="1" parent="mvioNwK95yMqdUQ73LqQ-36" source="xchZKOA8fYitA80GFGcP-172" target="xchZKOA8fYitA80GFGcP-175">
          <mxGeometry relative="1" as="geometry" />
        </mxCell>
        <mxCell id="xchZKOA8fYitA80GFGcP-172" value="ลดจำนวนเงินในตู้" style="whiteSpace=wrap;html=1;" vertex="1" parent="mvioNwK95yMqdUQ73LqQ-36">
          <mxGeometry x="361.6199999999999" y="2446" width="120" height="60" as="geometry" />
        </mxCell>
        <mxCell id="xchZKOA8fYitA80GFGcP-183" style="edgeStyle=orthogonalEdgeStyle;rounded=0;orthogonalLoop=1;jettySize=auto;html=1;entryX=0.5;entryY=0;entryDx=0;entryDy=0;" edge="1" parent="mvioNwK95yMqdUQ73LqQ-36" source="xchZKOA8fYitA80GFGcP-175" target="xchZKOA8fYitA80GFGcP-139">
          <mxGeometry relative="1" as="geometry" />
        </mxCell>
        <mxCell id="xchZKOA8fYitA80GFGcP-175" value="เงินทอน = 0" style="whiteSpace=wrap;html=1;" vertex="1" parent="mvioNwK95yMqdUQ73LqQ-36">
          <mxGeometry x="346.6300000000001" y="2546" width="150" height="60" as="geometry" />
        </mxCell>
        <mxCell id="xchZKOA8fYitA80GFGcP-178" value="no" style="text;html=1;align=center;verticalAlign=middle;whiteSpace=wrap;rounded=0;" vertex="1" parent="mvioNwK95yMqdUQ73LqQ-36">
          <mxGeometry x="518.3699999999999" y="2326" width="60" height="30" as="geometry" />
        </mxCell>
        <mxCell id="xchZKOA8fYitA80GFGcP-179" value="yes" style="text;html=1;align=center;verticalAlign=middle;whiteSpace=wrap;rounded=0;" vertex="1" parent="mvioNwK95yMqdUQ73LqQ-36">
          <mxGeometry x="421.6199999999999" y="2406" width="60" height="30" as="geometry" />
        </mxCell>
        <mxCell id="xchZKOA8fYitA80GFGcP-185" value="" style="edgeStyle=orthogonalEdgeStyle;rounded=0;orthogonalLoop=1;jettySize=auto;html=1;" edge="1" parent="mvioNwK95yMqdUQ73LqQ-36" source="xchZKOA8fYitA80GFGcP-181" target="xchZKOA8fYitA80GFGcP-184">
          <mxGeometry relative="1" as="geometry" />
        </mxCell>
        <mxCell id="xchZKOA8fYitA80GFGcP-181" value="คืนเงินให้ลูกค้า" style="rounded=0;whiteSpace=wrap;html=1;" vertex="1" parent="mvioNwK95yMqdUQ73LqQ-36">
          <mxGeometry x="608.3699999999999" y="2321" width="120" height="60" as="geometry" />
        </mxCell>
        <mxCell id="xchZKOA8fYitA80GFGcP-188" style="edgeStyle=orthogonalEdgeStyle;rounded=0;orthogonalLoop=1;jettySize=auto;html=1;entryX=1;entryY=0.5;entryDx=0;entryDy=0;" edge="1" parent="mvioNwK95yMqdUQ73LqQ-36" source="xchZKOA8fYitA80GFGcP-184" target="xchZKOA8fYitA80GFGcP-186">
          <mxGeometry relative="1" as="geometry">
            <Array as="points">
              <mxPoint x="668.3699999999999" y="2866" />
            </Array>
          </mxGeometry>
        </mxCell>
        <mxCell id="xchZKOA8fYitA80GFGcP-184" value="แสดงข้อความไม่มีเงินทอน" style="shape=parallelogram;perimeter=parallelogramPerimeter;whiteSpace=wrap;html=1;fixedSize=1;rounded=0;" vertex="1" parent="mvioNwK95yMqdUQ73LqQ-36">
          <mxGeometry x="578.3699999999999" y="2461" width="180" height="60" as="geometry" />
        </mxCell>
        <mxCell id="xchZKOA8fYitA80GFGcP-191" style="edgeStyle=orthogonalEdgeStyle;rounded=0;orthogonalLoop=1;jettySize=auto;html=1;" edge="1" parent="mvioNwK95yMqdUQ73LqQ-36" source="xchZKOA8fYitA80GFGcP-186" target="xchZKOA8fYitA80GFGcP-2">
          <mxGeometry relative="1" as="geometry" />
        </mxCell>
        <mxCell id="xchZKOA8fYitA80GFGcP-186" value="" style="ellipse;whiteSpace=wrap;html=1;aspect=fixed;" vertex="1" parent="mvioNwK95yMqdUQ73LqQ-36">
          <mxGeometry x="401.6199999999999" y="2846" width="40" height="40" as="geometry" />
        </mxCell>
        <mxCell id="nNyQ8NcAXZE7S4zx8suW-4" style="edgeStyle=orthogonalEdgeStyle;rounded=0;orthogonalLoop=1;jettySize=auto;html=1;entryX=0.5;entryY=0;entryDx=0;entryDy=0;" edge="1" parent="mvioNwK95yMqdUQ73LqQ-36" source="nNyQ8NcAXZE7S4zx8suW-0" target="xchZKOA8fYitA80GFGcP-21">
          <mxGeometry relative="1" as="geometry" />
        </mxCell>
        <mxCell id="nNyQ8NcAXZE7S4zx8suW-0" value="&lt;div&gt;แสดงรายการสินค้าประเภท&lt;/div&gt;&lt;div&gt;นํ้าและราคา&lt;/div&gt;" style="shape=parallelogram;perimeter=parallelogramPerimeter;whiteSpace=wrap;html=1;fixedSize=1;" vertex="1" parent="mvioNwK95yMqdUQ73LqQ-36">
          <mxGeometry x="240" y="470" width="160" height="60" as="geometry" />
        </mxCell>
        <mxCell id="nNyQ8NcAXZE7S4zx8suW-6" style="edgeStyle=orthogonalEdgeStyle;rounded=0;orthogonalLoop=1;jettySize=auto;html=1;" edge="1" parent="mvioNwK95yMqdUQ73LqQ-36" source="nNyQ8NcAXZE7S4zx8suW-1" target="xchZKOA8fYitA80GFGcP-27">
          <mxGeometry relative="1" as="geometry" />
        </mxCell>
        <mxCell id="nNyQ8NcAXZE7S4zx8suW-1" value="&lt;div&gt;แสดงรายการสินค้าประเภท&lt;/div&gt;&lt;div&gt;ขนมและราคา&lt;/div&gt;" style="shape=parallelogram;perimeter=parallelogramPerimeter;whiteSpace=wrap;html=1;fixedSize=1;" vertex="1" parent="mvioNwK95yMqdUQ73LqQ-36">
          <mxGeometry x="440" y="460" width="160" height="60" as="geometry" />
        </mxCell>
        <mxCell id="nNyQ8NcAXZE7S4zx8suW-19" style="edgeStyle=orthogonalEdgeStyle;rounded=0;orthogonalLoop=1;jettySize=auto;html=1;" edge="1" parent="mvioNwK95yMqdUQ73LqQ-36" source="nNyQ8NcAXZE7S4zx8suW-8" target="xchZKOA8fYitA80GFGcP-122">
          <mxGeometry relative="1" as="geometry" />
        </mxCell>
        <mxCell id="nNyQ8NcAXZE7S4zx8suW-8" value="แสดงข้อความแจ้งว่าไม่มีสินค้า" style="shape=parallelogram;perimeter=parallelogramPerimeter;whiteSpace=wrap;html=1;fixedSize=1;" vertex="1" parent="mvioNwK95yMqdUQ73LqQ-36">
          <mxGeometry x="610" y="961" width="120" height="60" as="geometry" />
        </mxCell>
        <mxCell id="nNyQ8NcAXZE7S4zx8suW-17" style="edgeStyle=orthogonalEdgeStyle;rounded=0;orthogonalLoop=1;jettySize=auto;html=1;entryX=1;entryY=0.5;entryDx=0;entryDy=0;" edge="1" parent="mvioNwK95yMqdUQ73LqQ-36" source="nNyQ8NcAXZE7S4zx8suW-14" target="xchZKOA8fYitA80GFGcP-35">
          <mxGeometry relative="1" as="geometry">
            <Array as="points">
              <mxPoint x="670" y="260" />
            </Array>
          </mxGeometry>
        </mxCell>
        <mxCell id="nNyQ8NcAXZE7S4zx8suW-14" value="" style="ellipse;whiteSpace=wrap;html=1;aspect=fixed;" vertex="1" parent="mvioNwK95yMqdUQ73LqQ-36">
          <mxGeometry x="650" y="355" width="40" height="40" as="geometry" />
        </mxCell>
        <mxCell id="nNyQ8NcAXZE7S4zx8suW-16" style="edgeStyle=orthogonalEdgeStyle;rounded=0;orthogonalLoop=1;jettySize=auto;html=1;entryX=0;entryY=0.5;entryDx=0;entryDy=0;" edge="1" parent="mvioNwK95yMqdUQ73LqQ-36" source="xchZKOA8fYitA80GFGcP-13" target="nNyQ8NcAXZE7S4zx8suW-14">
          <mxGeometry relative="1" as="geometry">
            <mxPoint x="650" y="370" as="targetPoint" />
          </mxGeometry>
        </mxCell>
        <mxCell id="nNyQ8NcAXZE7S4zx8suW-20" value="no" style="text;html=1;align=center;verticalAlign=middle;whiteSpace=wrap;rounded=0;" vertex="1" parent="mvioNwK95yMqdUQ73LqQ-36">
          <mxGeometry x="590" y="350" width="60" height="30" as="geometry" />
        </mxCell>
        <mxCell id="mvioNwK95yMqdUQ73LqQ-70" value="&lt;font data-font-src=&quot;https://fonts.googleapis.com/css?family=Sarabun&quot; face=&quot;Sarabun&quot;&gt;โจทย์ปัญหา&lt;/font&gt;" style="swimlane;whiteSpace=wrap;html=1;" vertex="1" parent="WIyWlLk6GJQsqaUBKTNV-1">
          <mxGeometry x="-720" y="320" width="640" height="240" as="geometry" />
        </mxCell>
        <mxCell id="mvioNwK95yMqdUQ73LqQ-71" value="&lt;font data-font-src=&quot;https://fonts.googleapis.com/css?family=Sarabun&quot; face=&quot;Sarabun&quot; style=&quot;font-size: 14px;&quot;&gt;จงเขียน Flowchart เพื่อแสดงขั้นตอนการทำงาน ของเครื่องขายน้ำอัตโนมัติที่ชื่อว่า &quot;ตะพาบลอย&quot;&lt;br&gt;โดยจะต้องมีสินค้าดังนี้&lt;br&gt;&lt;u&gt;ประเภทน้ำ&lt;span style=&quot;white-space: pre;&quot;&gt;&#x9;&lt;/span&gt;&lt;span style=&quot;white-space: pre;&quot;&gt;&#x9;&lt;/span&gt;&lt;span style=&quot;white-space: pre;&quot;&gt;&#x9;&lt;/span&gt;&lt;span style=&quot;white-space: pre;&quot;&gt;&#x9;&lt;/span&gt;&lt;span style=&quot;white-space: pre;&quot;&gt;&#x9;&lt;/span&gt;&lt;span style=&quot;white-space: pre;&quot;&gt;&#x9;&lt;span style=&quot;white-space: pre;&quot;&gt;&#x9;&lt;/span&gt;ข&lt;/span&gt;นม&lt;/u&gt;&lt;br&gt;&lt;span style=&quot;white-space: pre;&quot;&gt;&#x9;&lt;/span&gt;- โค้ก กระป๋องละ 10 บาท&lt;span style=&quot;white-space: pre;&quot;&gt;&#x9;&lt;/span&gt;&lt;span style=&quot;white-space: pre;&quot;&gt;&#x9;&lt;/span&gt;&lt;span style=&quot;white-space: pre;&quot;&gt;&#x9;&lt;/span&gt;&lt;span style=&quot;white-space: pre;&quot;&gt;&#x9;&lt;/span&gt;- เมล็ดทานตะวัน 13 บาท&lt;br&gt;&lt;span style=&quot;white-space: pre;&quot;&gt;&#x9;&lt;/span&gt;- น้ำเขียว กระป๋องละ 12 บาท&lt;span style=&quot;white-space: pre;&quot;&gt;&#x9;&lt;/span&gt;&lt;span style=&quot;white-space: pre;&quot;&gt;&#x9;&lt;/span&gt;&lt;span style=&quot;white-space: pre;&quot;&gt;&#x9;&lt;/span&gt;- ถั่วแปบ 20 บาท&lt;br&gt;&lt;span style=&quot;white-space: pre;&quot;&gt;&#x9;&lt;/span&gt;- อเมริกาโน่ 30 บาท&lt;span style=&quot;white-space: pre;&quot;&gt;&#x9;&lt;/span&gt;&lt;span style=&quot;white-space: pre;&quot;&gt;&#x9;&lt;/span&gt;&lt;span style=&quot;white-space: pre;&quot;&gt;&#x9;&lt;/span&gt;&lt;span style=&quot;white-space: pre;&quot;&gt;&#x9;&lt;/span&gt;&lt;span style=&quot;white-space: pre;&quot;&gt;&#x9;&lt;/span&gt;- จิ้นส้มหมก 15 บาท&lt;br&gt;&lt;span style=&quot;white-space: pre;&quot;&gt;&#x9;&lt;/span&gt;- ลาเต้ หวานเจี๊ยบ 35 บาท&lt;span style=&quot;white-space: pre;&quot;&gt;&#x9;&lt;/span&gt;&lt;br&gt;&lt;br&gt;&lt;u&gt;สิ่งที่ระบบควรจะทำได้&lt;/u&gt;&lt;br&gt;&lt;span style=&quot;white-space: pre;&quot;&gt;&#x9;&lt;/span&gt;- ลูกค้าเลือกสินค้า, ระบบจะต้องรวมยอดขาย และรวมรายการสินค้าทั้งหมดที่ลูกค้าเลือก&lt;br&gt;&lt;span style=&quot;white-space: pre;&quot;&gt;&#x9;&lt;/span&gt;- สรุปยอดว่าเหลือเงินในตู้อีกเท่าไหร่ เหลือเหรียญอะไรบ้าง? ธนบัตรอะไรบ้าง? อย่างละเท่าไหร่?&lt;br&gt;&lt;br&gt;&lt;br&gt;&lt;/font&gt;" style="text;html=1;align=left;verticalAlign=middle;resizable=0;points=[];autosize=1;strokeColor=none;fillColor=none;fontSize=14;" vertex="1" parent="mvioNwK95yMqdUQ73LqQ-70">
          <mxGeometry x="25" y="30" width="580" height="240" as="geometry" />
        </mxCell>
        <mxCell id="nNyQ8NcAXZE7S4zx8suW-23" style="edgeStyle=orthogonalEdgeStyle;rounded=0;orthogonalLoop=1;jettySize=auto;html=1;" edge="1" parent="WIyWlLk6GJQsqaUBKTNV-1" source="nNyQ8NcAXZE7S4zx8suW-12" target="nNyQ8NcAXZE7S4zx8suW-13">
          <mxGeometry relative="1" as="geometry">
            <Array as="points">
              <mxPoint x="2060" y="370" />
              <mxPoint x="1860" y="370" />
            </Array>
          </mxGeometry>
        </mxCell>
        <mxCell id="nNyQ8NcAXZE7S4zx8suW-12" value="เลือกประเภทสินค้า" style="rounded=0;whiteSpace=wrap;html=1;" vertex="1" parent="WIyWlLk6GJQsqaUBKTNV-1">
          <mxGeometry x="1970" y="270" width="180" height="60" as="geometry" />
        </mxCell>
        <mxCell id="nNyQ8NcAXZE7S4zx8suW-22" value="" style="edgeStyle=orthogonalEdgeStyle;rounded=0;orthogonalLoop=1;jettySize=auto;html=1;" edge="1" parent="WIyWlLk6GJQsqaUBKTNV-1" source="nNyQ8NcAXZE7S4zx8suW-13" target="nNyQ8NcAXZE7S4zx8suW-21">
          <mxGeometry relative="1" as="geometry" />
        </mxCell>
        <mxCell id="nNyQ8NcAXZE7S4zx8suW-25" value="" style="edgeStyle=orthogonalEdgeStyle;rounded=0;orthogonalLoop=1;jettySize=auto;html=1;" edge="1" parent="WIyWlLk6GJQsqaUBKTNV-1" source="nNyQ8NcAXZE7S4zx8suW-13" target="nNyQ8NcAXZE7S4zx8suW-24">
          <mxGeometry relative="1" as="geometry" />
        </mxCell>
        <mxCell id="nNyQ8NcAXZE7S4zx8suW-13" value="สินค้าประเภทนํ้าใช่หรือไม่" style="rhombus;whiteSpace=wrap;html=1;" vertex="1" parent="WIyWlLk6GJQsqaUBKTNV-1">
          <mxGeometry x="1795" y="400" width="130" height="120" as="geometry" />
        </mxCell>
        <mxCell id="nNyQ8NcAXZE7S4zx8suW-129" style="edgeStyle=orthogonalEdgeStyle;rounded=0;orthogonalLoop=1;jettySize=auto;html=1;" edge="1" parent="WIyWlLk6GJQsqaUBKTNV-1" source="nNyQ8NcAXZE7S4zx8suW-21" target="nNyQ8NcAXZE7S4zx8suW-106">
          <mxGeometry relative="1" as="geometry" />
        </mxCell>
        <mxCell id="iir6kJ8UeeXqHQkeEfDG-129" style="edgeStyle=orthogonalEdgeStyle;rounded=0;orthogonalLoop=1;jettySize=auto;html=1;entryX=0;entryY=0.5;entryDx=0;entryDy=0;" edge="1" parent="WIyWlLk6GJQsqaUBKTNV-1" source="nNyQ8NcAXZE7S4zx8suW-21" target="iir6kJ8UeeXqHQkeEfDG-126">
          <mxGeometry relative="1" as="geometry" />
        </mxCell>
        <mxCell id="nNyQ8NcAXZE7S4zx8suW-21" value="สินค้าประเภทขนมใช่หรือไม่" style="rhombus;whiteSpace=wrap;html=1;" vertex="1" parent="WIyWlLk6GJQsqaUBKTNV-1">
          <mxGeometry x="2235" y="400" width="130" height="120" as="geometry" />
        </mxCell>
        <mxCell id="nNyQ8NcAXZE7S4zx8suW-33" style="edgeStyle=orthogonalEdgeStyle;rounded=0;orthogonalLoop=1;jettySize=auto;html=1;" edge="1" parent="WIyWlLk6GJQsqaUBKTNV-1" source="nNyQ8NcAXZE7S4zx8suW-24" target="nNyQ8NcAXZE7S4zx8suW-26">
          <mxGeometry relative="1" as="geometry" />
        </mxCell>
        <mxCell id="nNyQ8NcAXZE7S4zx8suW-135" style="edgeStyle=orthogonalEdgeStyle;rounded=0;orthogonalLoop=1;jettySize=auto;html=1;" edge="1" parent="WIyWlLk6GJQsqaUBKTNV-1" source="nNyQ8NcAXZE7S4zx8suW-24" target="nNyQ8NcAXZE7S4zx8suW-134">
          <mxGeometry relative="1" as="geometry" />
        </mxCell>
        <mxCell id="nNyQ8NcAXZE7S4zx8suW-24" value="ลาเต้ใช่หรือไม่" style="rhombus;whiteSpace=wrap;html=1;" vertex="1" parent="WIyWlLk6GJQsqaUBKTNV-1">
          <mxGeometry x="1795" y="600" width="130" height="120" as="geometry" />
        </mxCell>
        <mxCell id="nNyQ8NcAXZE7S4zx8suW-35" value="" style="edgeStyle=orthogonalEdgeStyle;rounded=0;orthogonalLoop=1;jettySize=auto;html=1;" edge="1" parent="WIyWlLk6GJQsqaUBKTNV-1" source="nNyQ8NcAXZE7S4zx8suW-26" target="nNyQ8NcAXZE7S4zx8suW-34">
          <mxGeometry relative="1" as="geometry" />
        </mxCell>
        <mxCell id="nNyQ8NcAXZE7S4zx8suW-136" style="edgeStyle=orthogonalEdgeStyle;rounded=0;orthogonalLoop=1;jettySize=auto;html=1;entryX=0.5;entryY=0;entryDx=0;entryDy=0;" edge="1" parent="WIyWlLk6GJQsqaUBKTNV-1" source="nNyQ8NcAXZE7S4zx8suW-26" target="nNyQ8NcAXZE7S4zx8suW-134">
          <mxGeometry relative="1" as="geometry" />
        </mxCell>
        <mxCell id="nNyQ8NcAXZE7S4zx8suW-26" value="โค้กใช่หรือไม่" style="rhombus;whiteSpace=wrap;html=1;" vertex="1" parent="WIyWlLk6GJQsqaUBKTNV-1">
          <mxGeometry x="1795" y="790" width="130" height="120" as="geometry" />
        </mxCell>
        <mxCell id="nNyQ8NcAXZE7S4zx8suW-37" value="" style="edgeStyle=orthogonalEdgeStyle;rounded=0;orthogonalLoop=1;jettySize=auto;html=1;" edge="1" parent="WIyWlLk6GJQsqaUBKTNV-1" source="nNyQ8NcAXZE7S4zx8suW-34" target="nNyQ8NcAXZE7S4zx8suW-36">
          <mxGeometry relative="1" as="geometry" />
        </mxCell>
        <mxCell id="nNyQ8NcAXZE7S4zx8suW-137" style="edgeStyle=orthogonalEdgeStyle;rounded=0;orthogonalLoop=1;jettySize=auto;html=1;entryX=0.5;entryY=0;entryDx=0;entryDy=0;" edge="1" parent="WIyWlLk6GJQsqaUBKTNV-1" source="nNyQ8NcAXZE7S4zx8suW-34" target="nNyQ8NcAXZE7S4zx8suW-134">
          <mxGeometry relative="1" as="geometry" />
        </mxCell>
        <mxCell id="nNyQ8NcAXZE7S4zx8suW-34" value="อเมริกาโน่ใช่หรือไม่" style="rhombus;whiteSpace=wrap;html=1;" vertex="1" parent="WIyWlLk6GJQsqaUBKTNV-1">
          <mxGeometry x="1795" y="990" width="130" height="120" as="geometry" />
        </mxCell>
        <mxCell id="nNyQ8NcAXZE7S4zx8suW-138" style="edgeStyle=orthogonalEdgeStyle;rounded=0;orthogonalLoop=1;jettySize=auto;html=1;entryX=0.5;entryY=0;entryDx=0;entryDy=0;" edge="1" parent="WIyWlLk6GJQsqaUBKTNV-1" source="nNyQ8NcAXZE7S4zx8suW-36" target="nNyQ8NcAXZE7S4zx8suW-134">
          <mxGeometry relative="1" as="geometry" />
        </mxCell>
        <mxCell id="nNyQ8NcAXZE7S4zx8suW-36" value="ชาเขียวใช่หรือไม่" style="rhombus;whiteSpace=wrap;html=1;" vertex="1" parent="WIyWlLk6GJQsqaUBKTNV-1">
          <mxGeometry x="1795" y="1190" width="130" height="120" as="geometry" />
        </mxCell>
        <mxCell id="nNyQ8NcAXZE7S4zx8suW-38" value="no" style="text;html=1;align=center;verticalAlign=middle;whiteSpace=wrap;rounded=0;" vertex="1" parent="WIyWlLk6GJQsqaUBKTNV-1">
          <mxGeometry x="1845" y="740" width="60" height="30" as="geometry" />
        </mxCell>
        <mxCell id="nNyQ8NcAXZE7S4zx8suW-39" value="no" style="text;html=1;align=center;verticalAlign=middle;whiteSpace=wrap;rounded=0;" vertex="1" parent="WIyWlLk6GJQsqaUBKTNV-1">
          <mxGeometry x="1855" y="930" width="60" height="30" as="geometry" />
        </mxCell>
        <mxCell id="nNyQ8NcAXZE7S4zx8suW-40" value="no" style="text;html=1;align=center;verticalAlign=middle;whiteSpace=wrap;rounded=0;fontStyle=1" vertex="1" parent="WIyWlLk6GJQsqaUBKTNV-1">
          <mxGeometry x="1855" y="1120" width="60" height="30" as="geometry" />
        </mxCell>
        <mxCell id="nNyQ8NcAXZE7S4zx8suW-42" value="yes" style="text;html=1;align=center;verticalAlign=middle;whiteSpace=wrap;rounded=0;" vertex="1" parent="WIyWlLk6GJQsqaUBKTNV-1">
          <mxGeometry x="1845" y="540" width="60" height="30" as="geometry" />
        </mxCell>
        <mxCell id="nNyQ8NcAXZE7S4zx8suW-149" style="edgeStyle=orthogonalEdgeStyle;rounded=0;orthogonalLoop=1;jettySize=auto;html=1;entryX=0;entryY=0.5;entryDx=0;entryDy=0;" edge="1" parent="WIyWlLk6GJQsqaUBKTNV-1" source="nNyQ8NcAXZE7S4zx8suW-54" target="nNyQ8NcAXZE7S4zx8suW-148">
          <mxGeometry relative="1" as="geometry">
            <Array as="points">
              <mxPoint x="1880" y="1515" />
            </Array>
          </mxGeometry>
        </mxCell>
        <mxCell id="nNyQ8NcAXZE7S4zx8suW-54" value="ตวจสอบวันหมดอายุ" style="shape=process;whiteSpace=wrap;html=1;backgroundOutline=1;" vertex="1" parent="WIyWlLk6GJQsqaUBKTNV-1">
          <mxGeometry x="1815" y="1400" width="120" height="60" as="geometry" />
        </mxCell>
        <mxCell id="nNyQ8NcAXZE7S4zx8suW-64" value="yes" style="text;html=1;align=center;verticalAlign=middle;whiteSpace=wrap;rounded=0;" vertex="1" parent="WIyWlLk6GJQsqaUBKTNV-1">
          <mxGeometry x="1735" y="615" width="60" height="30" as="geometry" />
        </mxCell>
        <mxCell id="nNyQ8NcAXZE7S4zx8suW-65" value="yes" style="text;html=1;align=center;verticalAlign=middle;whiteSpace=wrap;rounded=0;" vertex="1" parent="WIyWlLk6GJQsqaUBKTNV-1">
          <mxGeometry x="1725" y="810" width="60" height="30" as="geometry" />
        </mxCell>
        <mxCell id="nNyQ8NcAXZE7S4zx8suW-66" value="yes" style="text;html=1;align=center;verticalAlign=middle;whiteSpace=wrap;rounded=0;" vertex="1" parent="WIyWlLk6GJQsqaUBKTNV-1">
          <mxGeometry x="1750" y="990" width="60" height="30" as="geometry" />
        </mxCell>
        <mxCell id="nNyQ8NcAXZE7S4zx8suW-67" value="yes" style="text;html=1;align=center;verticalAlign=middle;whiteSpace=wrap;rounded=0;" vertex="1" parent="WIyWlLk6GJQsqaUBKTNV-1">
          <mxGeometry x="1750" y="1190" width="60" height="30" as="geometry" />
        </mxCell>
        <mxCell id="nNyQ8NcAXZE7S4zx8suW-141" style="edgeStyle=orthogonalEdgeStyle;rounded=0;orthogonalLoop=1;jettySize=auto;html=1;" edge="1" parent="WIyWlLk6GJQsqaUBKTNV-1" source="nNyQ8NcAXZE7S4zx8suW-91" target="nNyQ8NcAXZE7S4zx8suW-97">
          <mxGeometry relative="1" as="geometry" />
        </mxCell>
        <mxCell id="nNyQ8NcAXZE7S4zx8suW-91" value="ตวจสอบว่ามีของหรือไม่" style="shape=process;whiteSpace=wrap;html=1;backgroundOutline=1;" vertex="1" parent="WIyWlLk6GJQsqaUBKTNV-1">
          <mxGeometry x="2455" y="1400" width="120" height="60" as="geometry" />
        </mxCell>
        <mxCell id="nNyQ8NcAXZE7S4zx8suW-150" style="edgeStyle=orthogonalEdgeStyle;rounded=0;orthogonalLoop=1;jettySize=auto;html=1;entryX=1;entryY=0.5;entryDx=0;entryDy=0;" edge="1" parent="WIyWlLk6GJQsqaUBKTNV-1" source="nNyQ8NcAXZE7S4zx8suW-97" target="nNyQ8NcAXZE7S4zx8suW-148">
          <mxGeometry relative="1" as="geometry">
            <Array as="points">
              <mxPoint x="2320" y="1515" />
            </Array>
          </mxGeometry>
        </mxCell>
        <mxCell id="nNyQ8NcAXZE7S4zx8suW-97" value="ตวจสอบวันหมดอายุ" style="shape=process;whiteSpace=wrap;html=1;backgroundOutline=1;" vertex="1" parent="WIyWlLk6GJQsqaUBKTNV-1">
          <mxGeometry x="2252.5" y="1400" width="120" height="60" as="geometry" />
        </mxCell>
        <mxCell id="nNyQ8NcAXZE7S4zx8suW-147" style="edgeStyle=orthogonalEdgeStyle;rounded=0;orthogonalLoop=1;jettySize=auto;html=1;" edge="1" parent="WIyWlLk6GJQsqaUBKTNV-1" source="nNyQ8NcAXZE7S4zx8suW-100" target="nNyQ8NcAXZE7S4zx8suW-91">
          <mxGeometry relative="1" as="geometry" />
        </mxCell>
        <mxCell id="nNyQ8NcAXZE7S4zx8suW-100" value="" style="ellipse;whiteSpace=wrap;html=1;aspect=fixed;" vertex="1" parent="WIyWlLk6GJQsqaUBKTNV-1">
          <mxGeometry x="2500" y="1300" width="30" height="30" as="geometry" />
        </mxCell>
        <mxCell id="nNyQ8NcAXZE7S4zx8suW-103" value="yes" style="text;html=1;align=center;verticalAlign=middle;whiteSpace=wrap;rounded=0;" vertex="1" parent="WIyWlLk6GJQsqaUBKTNV-1">
          <mxGeometry x="2390" y="600" width="60" height="30" as="geometry" />
        </mxCell>
        <mxCell id="nNyQ8NcAXZE7S4zx8suW-105" style="edgeStyle=orthogonalEdgeStyle;rounded=0;orthogonalLoop=1;jettySize=auto;html=1;" edge="1" parent="WIyWlLk6GJQsqaUBKTNV-1" source="nNyQ8NcAXZE7S4zx8suW-106" target="nNyQ8NcAXZE7S4zx8suW-108">
          <mxGeometry relative="1" as="geometry" />
        </mxCell>
        <mxCell id="nNyQ8NcAXZE7S4zx8suW-142" style="edgeStyle=orthogonalEdgeStyle;rounded=0;orthogonalLoop=1;jettySize=auto;html=1;entryX=0.5;entryY=0;entryDx=0;entryDy=0;" edge="1" parent="WIyWlLk6GJQsqaUBKTNV-1" source="nNyQ8NcAXZE7S4zx8suW-106" target="nNyQ8NcAXZE7S4zx8suW-100">
          <mxGeometry relative="1" as="geometry" />
        </mxCell>
        <mxCell id="nNyQ8NcAXZE7S4zx8suW-106" value="ลาเต้ใช่หรือไม่" style="rhombus;whiteSpace=wrap;html=1;" vertex="1" parent="WIyWlLk6GJQsqaUBKTNV-1">
          <mxGeometry x="2235" y="570" width="130" height="120" as="geometry" />
        </mxCell>
        <mxCell id="nNyQ8NcAXZE7S4zx8suW-107" value="" style="edgeStyle=orthogonalEdgeStyle;rounded=0;orthogonalLoop=1;jettySize=auto;html=1;" edge="1" parent="WIyWlLk6GJQsqaUBKTNV-1" source="nNyQ8NcAXZE7S4zx8suW-108" target="nNyQ8NcAXZE7S4zx8suW-110">
          <mxGeometry relative="1" as="geometry" />
        </mxCell>
        <mxCell id="nNyQ8NcAXZE7S4zx8suW-143" style="edgeStyle=orthogonalEdgeStyle;rounded=0;orthogonalLoop=1;jettySize=auto;html=1;entryX=0.5;entryY=0;entryDx=0;entryDy=0;" edge="1" parent="WIyWlLk6GJQsqaUBKTNV-1" source="nNyQ8NcAXZE7S4zx8suW-108" target="nNyQ8NcAXZE7S4zx8suW-100">
          <mxGeometry relative="1" as="geometry" />
        </mxCell>
        <mxCell id="nNyQ8NcAXZE7S4zx8suW-108" value="โค้กใช่หรือไม่" style="rhombus;whiteSpace=wrap;html=1;" vertex="1" parent="WIyWlLk6GJQsqaUBKTNV-1">
          <mxGeometry x="2235" y="760" width="130" height="120" as="geometry" />
        </mxCell>
        <mxCell id="nNyQ8NcAXZE7S4zx8suW-109" value="" style="edgeStyle=orthogonalEdgeStyle;rounded=0;orthogonalLoop=1;jettySize=auto;html=1;" edge="1" parent="WIyWlLk6GJQsqaUBKTNV-1" source="nNyQ8NcAXZE7S4zx8suW-110" target="nNyQ8NcAXZE7S4zx8suW-111">
          <mxGeometry relative="1" as="geometry" />
        </mxCell>
        <mxCell id="nNyQ8NcAXZE7S4zx8suW-145" style="edgeStyle=orthogonalEdgeStyle;rounded=0;orthogonalLoop=1;jettySize=auto;html=1;entryX=0.5;entryY=0;entryDx=0;entryDy=0;" edge="1" parent="WIyWlLk6GJQsqaUBKTNV-1" source="nNyQ8NcAXZE7S4zx8suW-110" target="nNyQ8NcAXZE7S4zx8suW-100">
          <mxGeometry relative="1" as="geometry" />
        </mxCell>
        <mxCell id="nNyQ8NcAXZE7S4zx8suW-110" value="อเมริกาโน่ใช่หรือไม่" style="rhombus;whiteSpace=wrap;html=1;" vertex="1" parent="WIyWlLk6GJQsqaUBKTNV-1">
          <mxGeometry x="2235" y="960" width="130" height="120" as="geometry" />
        </mxCell>
        <mxCell id="nNyQ8NcAXZE7S4zx8suW-146" style="edgeStyle=orthogonalEdgeStyle;rounded=0;orthogonalLoop=1;jettySize=auto;html=1;entryX=0.5;entryY=0;entryDx=0;entryDy=0;" edge="1" parent="WIyWlLk6GJQsqaUBKTNV-1" source="nNyQ8NcAXZE7S4zx8suW-111" target="nNyQ8NcAXZE7S4zx8suW-100">
          <mxGeometry relative="1" as="geometry" />
        </mxCell>
        <mxCell id="nNyQ8NcAXZE7S4zx8suW-111" value="ชาเขียวใช่หรือไม่" style="rhombus;whiteSpace=wrap;html=1;" vertex="1" parent="WIyWlLk6GJQsqaUBKTNV-1">
          <mxGeometry x="2235" y="1160" width="130" height="120" as="geometry" />
        </mxCell>
        <mxCell id="nNyQ8NcAXZE7S4zx8suW-112" value="no" style="text;html=1;align=center;verticalAlign=middle;whiteSpace=wrap;rounded=0;" vertex="1" parent="WIyWlLk6GJQsqaUBKTNV-1">
          <mxGeometry x="2285" y="710" width="60" height="30" as="geometry" />
        </mxCell>
        <mxCell id="nNyQ8NcAXZE7S4zx8suW-113" value="no" style="text;html=1;align=center;verticalAlign=middle;whiteSpace=wrap;rounded=0;" vertex="1" parent="WIyWlLk6GJQsqaUBKTNV-1">
          <mxGeometry x="2295" y="900" width="60" height="30" as="geometry" />
        </mxCell>
        <mxCell id="nNyQ8NcAXZE7S4zx8suW-114" value="no" style="text;html=1;align=center;verticalAlign=middle;whiteSpace=wrap;rounded=0;" vertex="1" parent="WIyWlLk6GJQsqaUBKTNV-1">
          <mxGeometry x="2295" y="1090" width="60" height="30" as="geometry" />
        </mxCell>
        <mxCell id="nNyQ8NcAXZE7S4zx8suW-125" value="no" style="text;html=1;align=center;verticalAlign=middle;whiteSpace=wrap;rounded=0;" vertex="1" parent="WIyWlLk6GJQsqaUBKTNV-1">
          <mxGeometry x="2380" y="425" width="60" height="30" as="geometry" />
        </mxCell>
        <mxCell id="nNyQ8NcAXZE7S4zx8suW-126" value="yes" style="text;html=1;align=center;verticalAlign=middle;whiteSpace=wrap;rounded=0;" vertex="1" parent="WIyWlLk6GJQsqaUBKTNV-1">
          <mxGeometry x="2310" y="520" width="60" height="30" as="geometry" />
        </mxCell>
        <mxCell id="nNyQ8NcAXZE7S4zx8suW-128" value="no" style="text;html=1;align=center;verticalAlign=middle;whiteSpace=wrap;rounded=0;" vertex="1" parent="WIyWlLk6GJQsqaUBKTNV-1">
          <mxGeometry x="1925" y="430" width="60" height="30" as="geometry" />
        </mxCell>
        <mxCell id="nNyQ8NcAXZE7S4zx8suW-155" value="" style="edgeStyle=orthogonalEdgeStyle;rounded=0;orthogonalLoop=1;jettySize=auto;html=1;" edge="1" parent="WIyWlLk6GJQsqaUBKTNV-1" source="nNyQ8NcAXZE7S4zx8suW-134" target="nNyQ8NcAXZE7S4zx8suW-154">
          <mxGeometry relative="1" as="geometry" />
        </mxCell>
        <mxCell id="nNyQ8NcAXZE7S4zx8suW-134" value="" style="ellipse;whiteSpace=wrap;html=1;aspect=fixed;" vertex="1" parent="WIyWlLk6GJQsqaUBKTNV-1">
          <mxGeometry x="1640" y="1300" width="30" height="30" as="geometry" />
        </mxCell>
        <mxCell id="nNyQ8NcAXZE7S4zx8suW-163" style="edgeStyle=orthogonalEdgeStyle;rounded=0;orthogonalLoop=1;jettySize=auto;html=1;" edge="1" parent="WIyWlLk6GJQsqaUBKTNV-1" source="nNyQ8NcAXZE7S4zx8suW-148" target="nNyQ8NcAXZE7S4zx8suW-162">
          <mxGeometry relative="1" as="geometry" />
        </mxCell>
        <mxCell id="nNyQ8NcAXZE7S4zx8suW-148" value="" style="ellipse;whiteSpace=wrap;html=1;aspect=fixed;" vertex="1" parent="WIyWlLk6GJQsqaUBKTNV-1">
          <mxGeometry x="2080" y="1500" width="30" height="30" as="geometry" />
        </mxCell>
        <mxCell id="nNyQ8NcAXZE7S4zx8suW-151" value="yes" style="text;html=1;align=center;verticalAlign=middle;whiteSpace=wrap;rounded=0;" vertex="1" parent="WIyWlLk6GJQsqaUBKTNV-1">
          <mxGeometry x="2395" y="790" width="60" height="30" as="geometry" />
        </mxCell>
        <mxCell id="nNyQ8NcAXZE7S4zx8suW-152" value="yes" style="text;html=1;align=center;verticalAlign=middle;whiteSpace=wrap;rounded=0;" vertex="1" parent="WIyWlLk6GJQsqaUBKTNV-1">
          <mxGeometry x="2395" y="990" width="60" height="30" as="geometry" />
        </mxCell>
        <mxCell id="nNyQ8NcAXZE7S4zx8suW-153" value="yes" style="text;html=1;align=center;verticalAlign=middle;whiteSpace=wrap;rounded=0;" vertex="1" parent="WIyWlLk6GJQsqaUBKTNV-1">
          <mxGeometry x="2390" y="1180" width="60" height="30" as="geometry" />
        </mxCell>
        <mxCell id="nNyQ8NcAXZE7S4zx8suW-156" style="edgeStyle=orthogonalEdgeStyle;rounded=0;orthogonalLoop=1;jettySize=auto;html=1;entryX=0;entryY=0.5;entryDx=0;entryDy=0;" edge="1" parent="WIyWlLk6GJQsqaUBKTNV-1" source="nNyQ8NcAXZE7S4zx8suW-154" target="nNyQ8NcAXZE7S4zx8suW-54">
          <mxGeometry relative="1" as="geometry" />
        </mxCell>
        <mxCell id="nNyQ8NcAXZE7S4zx8suW-159" style="edgeStyle=orthogonalEdgeStyle;rounded=0;orthogonalLoop=1;jettySize=auto;html=1;entryX=1;entryY=0.5;entryDx=0;entryDy=0;" edge="1" parent="WIyWlLk6GJQsqaUBKTNV-1" source="nNyQ8NcAXZE7S4zx8suW-154" target="nNyQ8NcAXZE7S4zx8suW-158">
          <mxGeometry relative="1" as="geometry" />
        </mxCell>
        <mxCell id="nNyQ8NcAXZE7S4zx8suW-154" value="ตวจสอบว่ามีของหรือไม่" style="rhombus;whiteSpace=wrap;html=1;" vertex="1" parent="WIyWlLk6GJQsqaUBKTNV-1">
          <mxGeometry x="1597.5" y="1377.5" width="115" height="105" as="geometry" />
        </mxCell>
        <mxCell id="nNyQ8NcAXZE7S4zx8suW-157" value="yes" style="text;html=1;align=center;verticalAlign=middle;whiteSpace=wrap;rounded=0;" vertex="1" parent="WIyWlLk6GJQsqaUBKTNV-1">
          <mxGeometry x="1735" y="1400" width="60" height="30" as="geometry" />
        </mxCell>
        <mxCell id="iir6kJ8UeeXqHQkeEfDG-1" value="" style="edgeStyle=orthogonalEdgeStyle;rounded=0;orthogonalLoop=1;jettySize=auto;html=1;" edge="1" parent="WIyWlLk6GJQsqaUBKTNV-1" source="nNyQ8NcAXZE7S4zx8suW-158" target="iir6kJ8UeeXqHQkeEfDG-0">
          <mxGeometry relative="1" as="geometry" />
        </mxCell>
        <mxCell id="nNyQ8NcAXZE7S4zx8suW-158" value="แสดงข้อความแจ้งว่าไม่มีสินค้า" style="shape=parallelogram;perimeter=parallelogramPerimeter;whiteSpace=wrap;html=1;fixedSize=1;" vertex="1" parent="WIyWlLk6GJQsqaUBKTNV-1">
          <mxGeometry x="1420" y="1400" width="120" height="60" as="geometry" />
        </mxCell>
        <mxCell id="nNyQ8NcAXZE7S4zx8suW-161" value="no" style="text;html=1;align=center;verticalAlign=middle;whiteSpace=wrap;rounded=0;" vertex="1" parent="WIyWlLk6GJQsqaUBKTNV-1">
          <mxGeometry x="1540" y="1400" width="60" height="30" as="geometry" />
        </mxCell>
        <mxCell id="iir6kJ8UeeXqHQkeEfDG-2" style="edgeStyle=orthogonalEdgeStyle;rounded=0;orthogonalLoop=1;jettySize=auto;html=1;entryX=0.5;entryY=1;entryDx=0;entryDy=0;" edge="1" parent="WIyWlLk6GJQsqaUBKTNV-1" source="nNyQ8NcAXZE7S4zx8suW-162" target="iir6kJ8UeeXqHQkeEfDG-0">
          <mxGeometry relative="1" as="geometry" />
        </mxCell>
        <mxCell id="iir6kJ8UeeXqHQkeEfDG-124" style="edgeStyle=orthogonalEdgeStyle;rounded=0;orthogonalLoop=1;jettySize=auto;html=1;entryX=0.5;entryY=0;entryDx=0;entryDy=0;" edge="1" parent="WIyWlLk6GJQsqaUBKTNV-1" source="nNyQ8NcAXZE7S4zx8suW-162" target="iir6kJ8UeeXqHQkeEfDG-68">
          <mxGeometry relative="1" as="geometry" />
        </mxCell>
        <mxCell id="nNyQ8NcAXZE7S4zx8suW-162" value="เลือกสินค้าต่อหรือไม่" style="rhombus;whiteSpace=wrap;html=1;" vertex="1" parent="WIyWlLk6GJQsqaUBKTNV-1">
          <mxGeometry x="2032.5" y="1600" width="125" height="110" as="geometry" />
        </mxCell>
        <mxCell id="iir6kJ8UeeXqHQkeEfDG-5" style="edgeStyle=orthogonalEdgeStyle;rounded=0;orthogonalLoop=1;jettySize=auto;html=1;entryX=0.5;entryY=0;entryDx=0;entryDy=0;" edge="1" parent="WIyWlLk6GJQsqaUBKTNV-1" source="nNyQ8NcAXZE7S4zx8suW-164" target="nNyQ8NcAXZE7S4zx8suW-12">
          <mxGeometry relative="1" as="geometry" />
        </mxCell>
        <mxCell id="nNyQ8NcAXZE7S4zx8suW-164" value="แสดงรายการสินค้าและราคาทั้งหมด" style="shape=parallelogram;perimeter=parallelogramPerimeter;whiteSpace=wrap;html=1;fixedSize=1;" vertex="1" parent="WIyWlLk6GJQsqaUBKTNV-1">
          <mxGeometry x="1948.26" y="170" width="220" height="60" as="geometry" />
        </mxCell>
        <mxCell id="iir6kJ8UeeXqHQkeEfDG-3" style="edgeStyle=orthogonalEdgeStyle;rounded=0;orthogonalLoop=1;jettySize=auto;html=1;entryX=0;entryY=0.5;entryDx=0;entryDy=0;" edge="1" parent="WIyWlLk6GJQsqaUBKTNV-1" source="iir6kJ8UeeXqHQkeEfDG-0" target="nNyQ8NcAXZE7S4zx8suW-12">
          <mxGeometry relative="1" as="geometry">
            <Array as="points">
              <mxPoint x="1275" y="300" />
            </Array>
          </mxGeometry>
        </mxCell>
        <mxCell id="iir6kJ8UeeXqHQkeEfDG-0" value="" style="ellipse;whiteSpace=wrap;html=1;" vertex="1" parent="WIyWlLk6GJQsqaUBKTNV-1">
          <mxGeometry x="1250" y="1405" width="50" height="50" as="geometry" />
        </mxCell>
        <mxCell id="iir6kJ8UeeXqHQkeEfDG-65" value="no" style="text;html=1;align=center;verticalAlign=middle;whiteSpace=wrap;rounded=0;" vertex="1" parent="WIyWlLk6GJQsqaUBKTNV-1">
          <mxGeometry x="2027.5" y="1710" width="60" height="30" as="geometry" />
        </mxCell>
        <mxCell id="iir6kJ8UeeXqHQkeEfDG-66" style="edgeStyle=orthogonalEdgeStyle;rounded=0;orthogonalLoop=1;jettySize=auto;html=1;" edge="1" parent="WIyWlLk6GJQsqaUBKTNV-1" source="iir6kJ8UeeXqHQkeEfDG-68" target="iir6kJ8UeeXqHQkeEfDG-72">
          <mxGeometry relative="1" as="geometry">
            <mxPoint x="2095" y="1900" as="targetPoint" />
          </mxGeometry>
        </mxCell>
        <mxCell id="iir6kJ8UeeXqHQkeEfDG-67" style="edgeStyle=orthogonalEdgeStyle;rounded=0;orthogonalLoop=1;jettySize=auto;html=1;entryX=0;entryY=0.5;entryDx=0;entryDy=0;" edge="1" parent="WIyWlLk6GJQsqaUBKTNV-1" source="iir6kJ8UeeXqHQkeEfDG-68" target="iir6kJ8UeeXqHQkeEfDG-123">
          <mxGeometry relative="1" as="geometry" />
        </mxCell>
        <mxCell id="iir6kJ8UeeXqHQkeEfDG-68" value="ตรวจสอบว่ามีสินค้า&lt;div&gt;หรือไม่&lt;/div&gt;" style="rhombus;whiteSpace=wrap;html=1;" vertex="1" parent="WIyWlLk6GJQsqaUBKTNV-1">
          <mxGeometry x="2032.5" y="1750" width="125" height="110" as="geometry" />
        </mxCell>
        <mxCell id="iir6kJ8UeeXqHQkeEfDG-69" value="yes" style="text;html=1;align=center;verticalAlign=middle;whiteSpace=wrap;rounded=0;" vertex="1" parent="WIyWlLk6GJQsqaUBKTNV-1">
          <mxGeometry x="2091.62" y="1884" width="60" height="30" as="geometry" />
        </mxCell>
        <mxCell id="iir6kJ8UeeXqHQkeEfDG-70" value="no" style="text;html=1;align=center;verticalAlign=middle;whiteSpace=wrap;rounded=0;" vertex="1" parent="WIyWlLk6GJQsqaUBKTNV-1">
          <mxGeometry x="2210" y="1770" width="60" height="30" as="geometry" />
        </mxCell>
        <mxCell id="iir6kJ8UeeXqHQkeEfDG-71" value="" style="edgeStyle=orthogonalEdgeStyle;rounded=0;orthogonalLoop=1;jettySize=auto;html=1;" edge="1" parent="WIyWlLk6GJQsqaUBKTNV-1" source="iir6kJ8UeeXqHQkeEfDG-72" target="iir6kJ8UeeXqHQkeEfDG-74">
          <mxGeometry relative="1" as="geometry" />
        </mxCell>
        <mxCell id="iir6kJ8UeeXqHQkeEfDG-72" value="รวมรายการทั้งหมดที่ลูกค้าเลือก" style="whiteSpace=wrap;html=1;" vertex="1" parent="WIyWlLk6GJQsqaUBKTNV-1">
          <mxGeometry x="2013.75" y="1950" width="165" height="60" as="geometry" />
        </mxCell>
        <mxCell id="iir6kJ8UeeXqHQkeEfDG-73" style="edgeStyle=orthogonalEdgeStyle;rounded=0;orthogonalLoop=1;jettySize=auto;html=1;" edge="1" parent="WIyWlLk6GJQsqaUBKTNV-1" source="iir6kJ8UeeXqHQkeEfDG-74" target="iir6kJ8UeeXqHQkeEfDG-76">
          <mxGeometry relative="1" as="geometry" />
        </mxCell>
        <mxCell id="iir6kJ8UeeXqHQkeEfDG-74" value="รวมราคาทั้งหมดของสินค้าที่เลือก&amp;nbsp;" style="whiteSpace=wrap;html=1;" vertex="1" parent="WIyWlLk6GJQsqaUBKTNV-1">
          <mxGeometry x="2008.75" y="2054" width="175" height="60" as="geometry" />
        </mxCell>
        <mxCell id="iir6kJ8UeeXqHQkeEfDG-75" value="" style="edgeStyle=orthogonalEdgeStyle;rounded=0;orthogonalLoop=1;jettySize=auto;html=1;" edge="1" parent="WIyWlLk6GJQsqaUBKTNV-1" source="iir6kJ8UeeXqHQkeEfDG-76" target="iir6kJ8UeeXqHQkeEfDG-78">
          <mxGeometry relative="1" as="geometry" />
        </mxCell>
        <mxCell id="iir6kJ8UeeXqHQkeEfDG-76" value="แสดงรายการทั้งหมดรวมกับ&lt;div&gt;ราคาสินค้าทั้งหมด&lt;/div&gt;" style="shape=parallelogram;perimeter=parallelogramPerimeter;whiteSpace=wrap;html=1;fixedSize=1;" vertex="1" parent="WIyWlLk6GJQsqaUBKTNV-1">
          <mxGeometry x="1997.5" y="2170" width="197.5" height="60" as="geometry" />
        </mxCell>
        <mxCell id="iir6kJ8UeeXqHQkeEfDG-77" value="" style="edgeStyle=orthogonalEdgeStyle;rounded=0;orthogonalLoop=1;jettySize=auto;html=1;" edge="1" parent="WIyWlLk6GJQsqaUBKTNV-1" source="iir6kJ8UeeXqHQkeEfDG-78" target="iir6kJ8UeeXqHQkeEfDG-81">
          <mxGeometry relative="1" as="geometry" />
        </mxCell>
        <mxCell id="iir6kJ8UeeXqHQkeEfDG-78" value="เลือกวิธีการเงิน" style="whiteSpace=wrap;html=1;" vertex="1" parent="WIyWlLk6GJQsqaUBKTNV-1">
          <mxGeometry x="2018.75" y="2290" width="155" height="60" as="geometry" />
        </mxCell>
        <mxCell id="iir6kJ8UeeXqHQkeEfDG-79" value="" style="edgeStyle=orthogonalEdgeStyle;rounded=0;orthogonalLoop=1;jettySize=auto;html=1;" edge="1" parent="WIyWlLk6GJQsqaUBKTNV-1" source="iir6kJ8UeeXqHQkeEfDG-81" target="iir6kJ8UeeXqHQkeEfDG-84">
          <mxGeometry relative="1" as="geometry" />
        </mxCell>
        <mxCell id="iir6kJ8UeeXqHQkeEfDG-80" style="edgeStyle=orthogonalEdgeStyle;rounded=0;orthogonalLoop=1;jettySize=auto;html=1;entryX=0;entryY=0.5;entryDx=0;entryDy=0;" edge="1" parent="WIyWlLk6GJQsqaUBKTNV-1" source="iir6kJ8UeeXqHQkeEfDG-81" target="iir6kJ8UeeXqHQkeEfDG-112">
          <mxGeometry relative="1" as="geometry">
            <Array as="points">
              <mxPoint x="1840" y="2445" />
              <mxPoint x="1840" y="3290" />
            </Array>
          </mxGeometry>
        </mxCell>
        <mxCell id="iir6kJ8UeeXqHQkeEfDG-81" value="&lt;div&gt;จ่ายเงินแบบสแกน&lt;div&gt;หรือไม่&lt;/div&gt;&lt;/div&gt;" style="rhombus;whiteSpace=wrap;html=1;" vertex="1" parent="WIyWlLk6GJQsqaUBKTNV-1">
          <mxGeometry x="2038.75" y="2390" width="115" height="110" as="geometry" />
        </mxCell>
        <mxCell id="iir6kJ8UeeXqHQkeEfDG-82" style="edgeStyle=orthogonalEdgeStyle;rounded=0;orthogonalLoop=1;jettySize=auto;html=1;entryX=0.5;entryY=0;entryDx=0;entryDy=0;" edge="1" parent="WIyWlLk6GJQsqaUBKTNV-1" source="iir6kJ8UeeXqHQkeEfDG-84" target="iir6kJ8UeeXqHQkeEfDG-91">
          <mxGeometry relative="1" as="geometry">
            <mxPoint x="2096.25" y="2685" as="targetPoint" />
          </mxGeometry>
        </mxCell>
        <mxCell id="iir6kJ8UeeXqHQkeEfDG-83" style="edgeStyle=orthogonalEdgeStyle;rounded=0;orthogonalLoop=1;jettySize=auto;html=1;entryX=0;entryY=0.5;entryDx=0;entryDy=0;" edge="1" parent="WIyWlLk6GJQsqaUBKTNV-1" source="iir6kJ8UeeXqHQkeEfDG-84" target="iir6kJ8UeeXqHQkeEfDG-94">
          <mxGeometry relative="1" as="geometry" />
        </mxCell>
        <mxCell id="iir6kJ8UeeXqHQkeEfDG-84" value="จ่ายเงินสดหรือไม่" style="rhombus;whiteSpace=wrap;html=1;strokeColor=default;align=center;verticalAlign=middle;fontFamily=Helvetica;fontSize=12;fontColor=default;fillColor=default;" vertex="1" parent="WIyWlLk6GJQsqaUBKTNV-1">
          <mxGeometry x="2038.75" y="2540" width="115" height="95" as="geometry" />
        </mxCell>
        <mxCell id="iir6kJ8UeeXqHQkeEfDG-85" value="no" style="text;html=1;align=center;verticalAlign=middle;whiteSpace=wrap;rounded=0;" vertex="1" parent="WIyWlLk6GJQsqaUBKTNV-1">
          <mxGeometry x="2038.75" y="2505" width="60" height="30" as="geometry" />
        </mxCell>
        <mxCell id="iir6kJ8UeeXqHQkeEfDG-86" value="yes" style="text;html=1;align=center;verticalAlign=middle;whiteSpace=wrap;rounded=0;" vertex="1" parent="WIyWlLk6GJQsqaUBKTNV-1">
          <mxGeometry x="2113.75" y="2635" width="60" height="30" as="geometry" />
        </mxCell>
        <mxCell id="iir6kJ8UeeXqHQkeEfDG-87" value="yes" style="text;html=1;align=center;verticalAlign=middle;whiteSpace=wrap;rounded=0;" vertex="1" parent="WIyWlLk6GJQsqaUBKTNV-1">
          <mxGeometry x="1984" y="2404" width="60" height="30" as="geometry" />
        </mxCell>
        <mxCell id="iir6kJ8UeeXqHQkeEfDG-88" value="no" style="text;html=1;align=center;verticalAlign=middle;whiteSpace=wrap;rounded=0;" vertex="1" parent="WIyWlLk6GJQsqaUBKTNV-1">
          <mxGeometry x="2153.75" y="2555" width="60" height="30" as="geometry" />
        </mxCell>
        <mxCell id="iir6kJ8UeeXqHQkeEfDG-90" style="edgeStyle=orthogonalEdgeStyle;rounded=0;orthogonalLoop=1;jettySize=auto;html=1;entryX=0.5;entryY=0;entryDx=0;entryDy=0;" edge="1" parent="WIyWlLk6GJQsqaUBKTNV-1" source="iir6kJ8UeeXqHQkeEfDG-91" target="iir6kJ8UeeXqHQkeEfDG-97">
          <mxGeometry relative="1" as="geometry" />
        </mxCell>
        <mxCell id="iir6kJ8UeeXqHQkeEfDG-132" style="edgeStyle=orthogonalEdgeStyle;rounded=0;orthogonalLoop=1;jettySize=auto;html=1;entryX=0;entryY=0.5;entryDx=0;entryDy=0;" edge="1" parent="WIyWlLk6GJQsqaUBKTNV-1" source="iir6kJ8UeeXqHQkeEfDG-91" target="iir6kJ8UeeXqHQkeEfDG-131">
          <mxGeometry relative="1" as="geometry" />
        </mxCell>
        <mxCell id="iir6kJ8UeeXqHQkeEfDG-91" value="จำนวนเงินที่ได้รับ &amp;gt;= ราคาสินค้า" style="rhombus;whiteSpace=wrap;html=1;" vertex="1" parent="WIyWlLk6GJQsqaUBKTNV-1">
          <mxGeometry x="2047.87" y="2665" width="96.75" height="95" as="geometry" />
        </mxCell>
        <mxCell id="iir6kJ8UeeXqHQkeEfDG-93" style="edgeStyle=orthogonalEdgeStyle;rounded=0;orthogonalLoop=1;jettySize=auto;html=1;entryX=1;entryY=0.5;entryDx=0;entryDy=0;" edge="1" parent="WIyWlLk6GJQsqaUBKTNV-1" source="iir6kJ8UeeXqHQkeEfDG-94" target="iir6kJ8UeeXqHQkeEfDG-78">
          <mxGeometry relative="1" as="geometry">
            <Array as="points">
              <mxPoint x="2353" y="2320" />
            </Array>
          </mxGeometry>
        </mxCell>
        <mxCell id="iir6kJ8UeeXqHQkeEfDG-94" value="" style="ellipse;whiteSpace=wrap;html=1;aspect=fixed;" vertex="1" parent="WIyWlLk6GJQsqaUBKTNV-1">
          <mxGeometry x="2333" y="2567.5" width="40" height="40" as="geometry" />
        </mxCell>
        <mxCell id="iir6kJ8UeeXqHQkeEfDG-95" value="no" style="text;html=1;align=center;verticalAlign=middle;whiteSpace=wrap;rounded=0;" vertex="1" parent="WIyWlLk6GJQsqaUBKTNV-1">
          <mxGeometry x="2163.75" y="2678.75" width="60" height="30" as="geometry" />
        </mxCell>
        <mxCell id="iir6kJ8UeeXqHQkeEfDG-96" value="yes" style="text;html=1;align=center;verticalAlign=middle;whiteSpace=wrap;rounded=0;" vertex="1" parent="WIyWlLk6GJQsqaUBKTNV-1">
          <mxGeometry x="2038.75" y="2760" width="60" height="30" as="geometry" />
        </mxCell>
        <mxCell id="iir6kJ8UeeXqHQkeEfDG-97" value="คำนวนเงินทอน" style="whiteSpace=wrap;html=1;" vertex="1" parent="WIyWlLk6GJQsqaUBKTNV-1">
          <mxGeometry x="2021.25" y="2795" width="150" height="60" as="geometry" />
        </mxCell>
        <mxCell id="iir6kJ8UeeXqHQkeEfDG-98" value="&lt;span style=&quot;font-size: 15px;&quot;&gt;สิ้นสุด&lt;/span&gt;" style="strokeWidth=1;html=1;shape=mxgraph.flowchart.terminator;whiteSpace=wrap;" vertex="1" parent="WIyWlLk6GJQsqaUBKTNV-1">
          <mxGeometry x="2027.5" y="3745" width="130" height="60" as="geometry" />
        </mxCell>
        <mxCell id="iir6kJ8UeeXqHQkeEfDG-99" style="edgeStyle=orthogonalEdgeStyle;rounded=0;orthogonalLoop=1;jettySize=auto;html=1;" edge="1" parent="WIyWlLk6GJQsqaUBKTNV-1" target="iir6kJ8UeeXqHQkeEfDG-101">
          <mxGeometry relative="1" as="geometry">
            <mxPoint x="2092.5" y="2855" as="sourcePoint" />
          </mxGeometry>
        </mxCell>
        <mxCell id="iir6kJ8UeeXqHQkeEfDG-100" value="" style="edgeStyle=orthogonalEdgeStyle;rounded=0;orthogonalLoop=1;jettySize=auto;html=1;" edge="1" parent="WIyWlLk6GJQsqaUBKTNV-1" source="iir6kJ8UeeXqHQkeEfDG-101" target="iir6kJ8UeeXqHQkeEfDG-106">
          <mxGeometry relative="1" as="geometry" />
        </mxCell>
        <mxCell id="iir6kJ8UeeXqHQkeEfDG-101" value="จำนวนเงินทอน = ราคารสินค้า - จำนวนเงินที่ได้รับ&amp;nbsp;&amp;nbsp;" style="whiteSpace=wrap;html=1;" vertex="1" parent="WIyWlLk6GJQsqaUBKTNV-1">
          <mxGeometry x="1972.5" y="2890" width="238.25" height="60" as="geometry" />
        </mxCell>
        <mxCell id="iir6kJ8UeeXqHQkeEfDG-102" value="" style="edgeStyle=orthogonalEdgeStyle;rounded=0;orthogonalLoop=1;jettySize=auto;html=1;" edge="1" parent="WIyWlLk6GJQsqaUBKTNV-1" source="iir6kJ8UeeXqHQkeEfDG-104" target="iir6kJ8UeeXqHQkeEfDG-112">
          <mxGeometry relative="1" as="geometry" />
        </mxCell>
        <mxCell id="iir6kJ8UeeXqHQkeEfDG-103" style="edgeStyle=orthogonalEdgeStyle;rounded=0;orthogonalLoop=1;jettySize=auto;html=1;entryX=0;entryY=0.5;entryDx=0;entryDy=0;" edge="1" parent="WIyWlLk6GJQsqaUBKTNV-1" source="iir6kJ8UeeXqHQkeEfDG-104" target="iir6kJ8UeeXqHQkeEfDG-118">
          <mxGeometry relative="1" as="geometry">
            <mxPoint x="2278.3699999999994" y="3165" as="targetPoint" />
          </mxGeometry>
        </mxCell>
        <mxCell id="iir6kJ8UeeXqHQkeEfDG-104" value="เงินในตู้ &amp;gt;= เงินทอน&lt;div&gt;หรือไม่&lt;/div&gt;" style="rhombus;whiteSpace=wrap;html=1;" vertex="1" parent="WIyWlLk6GJQsqaUBKTNV-1">
          <mxGeometry x="2015" y="3110" width="153.26" height="110" as="geometry" />
        </mxCell>
        <mxCell id="iir6kJ8UeeXqHQkeEfDG-105" style="edgeStyle=orthogonalEdgeStyle;rounded=0;orthogonalLoop=1;jettySize=auto;html=1;" edge="1" parent="WIyWlLk6GJQsqaUBKTNV-1" source="iir6kJ8UeeXqHQkeEfDG-106" target="iir6kJ8UeeXqHQkeEfDG-104">
          <mxGeometry relative="1" as="geometry" />
        </mxCell>
        <mxCell id="iir6kJ8UeeXqHQkeEfDG-106" value="คำนวน จำนวนเหรียญ และ จำนวนธนบัตรภายในตู้" style="whiteSpace=wrap;html=1;" vertex="1" parent="WIyWlLk6GJQsqaUBKTNV-1">
          <mxGeometry x="1981.62" y="3000" width="220.01" height="60" as="geometry" />
        </mxCell>
        <mxCell id="iir6kJ8UeeXqHQkeEfDG-107" style="edgeStyle=orthogonalEdgeStyle;rounded=0;orthogonalLoop=1;jettySize=auto;html=1;" edge="1" parent="WIyWlLk6GJQsqaUBKTNV-1" source="iir6kJ8UeeXqHQkeEfDG-108" target="iir6kJ8UeeXqHQkeEfDG-110">
          <mxGeometry relative="1" as="geometry" />
        </mxCell>
        <mxCell id="iir6kJ8UeeXqHQkeEfDG-108" value="ปล่อยสินค้า" style="whiteSpace=wrap;html=1;" vertex="1" parent="WIyWlLk6GJQsqaUBKTNV-1">
          <mxGeometry x="2016.62" y="3460" width="150" height="60" as="geometry" />
        </mxCell>
        <mxCell id="iir6kJ8UeeXqHQkeEfDG-109" style="edgeStyle=orthogonalEdgeStyle;rounded=0;orthogonalLoop=1;jettySize=auto;html=1;entryX=0.5;entryY=0;entryDx=0;entryDy=0;" edge="1" parent="WIyWlLk6GJQsqaUBKTNV-1" source="iir6kJ8UeeXqHQkeEfDG-110" target="iir6kJ8UeeXqHQkeEfDG-122">
          <mxGeometry relative="1" as="geometry" />
        </mxCell>
        <mxCell id="iir6kJ8UeeXqHQkeEfDG-110" value="ลูกค้าได้รับสินค้า" style="whiteSpace=wrap;html=1;" vertex="1" parent="WIyWlLk6GJQsqaUBKTNV-1">
          <mxGeometry x="2016.62" y="3570" width="150" height="60" as="geometry" />
        </mxCell>
        <mxCell id="iir6kJ8UeeXqHQkeEfDG-111" style="edgeStyle=orthogonalEdgeStyle;rounded=0;orthogonalLoop=1;jettySize=auto;html=1;" edge="1" parent="WIyWlLk6GJQsqaUBKTNV-1" source="iir6kJ8UeeXqHQkeEfDG-112" target="iir6kJ8UeeXqHQkeEfDG-114">
          <mxGeometry relative="1" as="geometry" />
        </mxCell>
        <mxCell id="iir6kJ8UeeXqHQkeEfDG-112" value="ลดจำนวนเงินในตู้" style="whiteSpace=wrap;html=1;" vertex="1" parent="WIyWlLk6GJQsqaUBKTNV-1">
          <mxGeometry x="2031.62" y="3260" width="120" height="60" as="geometry" />
        </mxCell>
        <mxCell id="iir6kJ8UeeXqHQkeEfDG-113" style="edgeStyle=orthogonalEdgeStyle;rounded=0;orthogonalLoop=1;jettySize=auto;html=1;entryX=0.5;entryY=0;entryDx=0;entryDy=0;" edge="1" parent="WIyWlLk6GJQsqaUBKTNV-1" source="iir6kJ8UeeXqHQkeEfDG-114" target="iir6kJ8UeeXqHQkeEfDG-108">
          <mxGeometry relative="1" as="geometry" />
        </mxCell>
        <mxCell id="iir6kJ8UeeXqHQkeEfDG-114" value="เงินทอน = 0" style="whiteSpace=wrap;html=1;" vertex="1" parent="WIyWlLk6GJQsqaUBKTNV-1">
          <mxGeometry x="2016.63" y="3360" width="150" height="60" as="geometry" />
        </mxCell>
        <mxCell id="iir6kJ8UeeXqHQkeEfDG-115" value="no" style="text;html=1;align=center;verticalAlign=middle;whiteSpace=wrap;rounded=0;" vertex="1" parent="WIyWlLk6GJQsqaUBKTNV-1">
          <mxGeometry x="2188.37" y="3140" width="60" height="30" as="geometry" />
        </mxCell>
        <mxCell id="iir6kJ8UeeXqHQkeEfDG-116" value="yes" style="text;html=1;align=center;verticalAlign=middle;whiteSpace=wrap;rounded=0;" vertex="1" parent="WIyWlLk6GJQsqaUBKTNV-1">
          <mxGeometry x="2091.62" y="3220" width="60" height="30" as="geometry" />
        </mxCell>
        <mxCell id="iir6kJ8UeeXqHQkeEfDG-117" value="" style="edgeStyle=orthogonalEdgeStyle;rounded=0;orthogonalLoop=1;jettySize=auto;html=1;" edge="1" parent="WIyWlLk6GJQsqaUBKTNV-1" source="iir6kJ8UeeXqHQkeEfDG-118" target="iir6kJ8UeeXqHQkeEfDG-120">
          <mxGeometry relative="1" as="geometry" />
        </mxCell>
        <mxCell id="iir6kJ8UeeXqHQkeEfDG-118" value="คืนเงินให้ลูกค้า" style="rounded=0;whiteSpace=wrap;html=1;" vertex="1" parent="WIyWlLk6GJQsqaUBKTNV-1">
          <mxGeometry x="2278.37" y="3135" width="120" height="60" as="geometry" />
        </mxCell>
        <mxCell id="iir6kJ8UeeXqHQkeEfDG-119" style="edgeStyle=orthogonalEdgeStyle;rounded=0;orthogonalLoop=1;jettySize=auto;html=1;entryX=1;entryY=0.5;entryDx=0;entryDy=0;" edge="1" parent="WIyWlLk6GJQsqaUBKTNV-1" source="iir6kJ8UeeXqHQkeEfDG-120" target="iir6kJ8UeeXqHQkeEfDG-122">
          <mxGeometry relative="1" as="geometry">
            <Array as="points">
              <mxPoint x="2338.37" y="3680" />
            </Array>
          </mxGeometry>
        </mxCell>
        <mxCell id="iir6kJ8UeeXqHQkeEfDG-120" value="แสดงข้อความไม่มีเงินทอน" style="shape=parallelogram;perimeter=parallelogramPerimeter;whiteSpace=wrap;html=1;fixedSize=1;rounded=0;" vertex="1" parent="WIyWlLk6GJQsqaUBKTNV-1">
          <mxGeometry x="2248.37" y="3275" width="180" height="60" as="geometry" />
        </mxCell>
        <mxCell id="iir6kJ8UeeXqHQkeEfDG-121" style="edgeStyle=orthogonalEdgeStyle;rounded=0;orthogonalLoop=1;jettySize=auto;html=1;" edge="1" parent="WIyWlLk6GJQsqaUBKTNV-1" source="iir6kJ8UeeXqHQkeEfDG-122" target="iir6kJ8UeeXqHQkeEfDG-98">
          <mxGeometry relative="1" as="geometry" />
        </mxCell>
        <mxCell id="iir6kJ8UeeXqHQkeEfDG-122" value="" style="ellipse;whiteSpace=wrap;html=1;aspect=fixed;" vertex="1" parent="WIyWlLk6GJQsqaUBKTNV-1">
          <mxGeometry x="2071.62" y="3660" width="40" height="40" as="geometry" />
        </mxCell>
        <mxCell id="iir6kJ8UeeXqHQkeEfDG-127" value="" style="edgeStyle=orthogonalEdgeStyle;rounded=0;orthogonalLoop=1;jettySize=auto;html=1;" edge="1" parent="WIyWlLk6GJQsqaUBKTNV-1" source="iir6kJ8UeeXqHQkeEfDG-123" target="iir6kJ8UeeXqHQkeEfDG-126">
          <mxGeometry relative="1" as="geometry" />
        </mxCell>
        <mxCell id="iir6kJ8UeeXqHQkeEfDG-123" value="แสดงข้อความแจ้งว่าไม่มีสินค้า" style="shape=parallelogram;perimeter=parallelogramPerimeter;whiteSpace=wrap;html=1;fixedSize=1;" vertex="1" parent="WIyWlLk6GJQsqaUBKTNV-1">
          <mxGeometry x="2280" y="1775" width="120" height="60" as="geometry" />
        </mxCell>
        <mxCell id="iir6kJ8UeeXqHQkeEfDG-130" style="edgeStyle=orthogonalEdgeStyle;rounded=0;orthogonalLoop=1;jettySize=auto;html=1;entryX=1;entryY=0.5;entryDx=0;entryDy=0;" edge="1" parent="WIyWlLk6GJQsqaUBKTNV-1" source="iir6kJ8UeeXqHQkeEfDG-126" target="nNyQ8NcAXZE7S4zx8suW-12">
          <mxGeometry relative="1" as="geometry">
            <Array as="points">
              <mxPoint x="2635" y="300" />
            </Array>
          </mxGeometry>
        </mxCell>
        <mxCell id="iir6kJ8UeeXqHQkeEfDG-126" value="" style="ellipse;whiteSpace=wrap;html=1;" vertex="1" parent="WIyWlLk6GJQsqaUBKTNV-1">
          <mxGeometry x="2620" y="442.5" width="30" height="35" as="geometry" />
        </mxCell>
        <mxCell id="iir6kJ8UeeXqHQkeEfDG-133" style="edgeStyle=orthogonalEdgeStyle;rounded=0;orthogonalLoop=1;jettySize=auto;html=1;" edge="1" parent="WIyWlLk6GJQsqaUBKTNV-1" source="iir6kJ8UeeXqHQkeEfDG-131" target="iir6kJ8UeeXqHQkeEfDG-94">
          <mxGeometry relative="1" as="geometry" />
        </mxCell>
        <mxCell id="iir6kJ8UeeXqHQkeEfDG-131" value="แสดงยอดเงินคงเหลือที่&lt;div&gt;ลูกค้าต้องจ่ายเพิ่ม&lt;/div&gt;" style="shape=parallelogram;perimeter=parallelogramPerimeter;whiteSpace=wrap;html=1;fixedSize=1;" vertex="1" parent="WIyWlLk6GJQsqaUBKTNV-1">
          <mxGeometry x="2263" y="2678.75" width="180" height="67.5" as="geometry" />
        </mxCell>
        <mxCell id="iir6kJ8UeeXqHQkeEfDG-134" value="yes" style="text;html=1;align=center;verticalAlign=middle;whiteSpace=wrap;rounded=0;" vertex="1" parent="WIyWlLk6GJQsqaUBKTNV-1">
          <mxGeometry x="1978.75" y="1620" width="60" height="30" as="geometry" />
        </mxCell>
        <mxCell id="iir6kJ8UeeXqHQkeEfDG-136" style="edgeStyle=orthogonalEdgeStyle;rounded=0;orthogonalLoop=1;jettySize=auto;html=1;entryX=0.5;entryY=0;entryDx=0;entryDy=0;" edge="1" parent="WIyWlLk6GJQsqaUBKTNV-1" source="iir6kJ8UeeXqHQkeEfDG-135" target="nNyQ8NcAXZE7S4zx8suW-164">
          <mxGeometry relative="1" as="geometry" />
        </mxCell>
        <mxCell id="iir6kJ8UeeXqHQkeEfDG-135" value="&lt;font style=&quot;font-size: 15px;&quot;&gt;เริ่มต้น&lt;/font&gt;" style="strokeWidth=1;html=1;shape=mxgraph.flowchart.terminator;whiteSpace=wrap;" vertex="1" parent="WIyWlLk6GJQsqaUBKTNV-1">
          <mxGeometry x="1992.5" y="60" width="130" height="60" as="geometry" />
        </mxCell>
      </root>
    </mxGraphModel>
  </diagram>
</mxfile>
